<svg width="78" height="81" viewBox="0 0 78 81" fill="none" xmlns="http://www.w3.org/2000/svg">
<g filter="url(#filter0_d_2688_9323)">
<path d="M4.62695 48.2685H12.9936V60.2723C9.09375 57.5887 6.39994 53.4931 4.62695 48.2685ZM14.3417 48.4806V48.2685H21.5035V48.4806C21.5035 51.3752 23.3463 53.07 26.2543 53.07V60.2015C19.3044 60.2015 14.3417 55.3293 14.3417 48.4806ZM14.3417 62.7437H26.2543V69.3096C21.5035 68.2512 17.7445 65.9212 14.3417 62.7437ZM29.7992 69.6631H47.0296C44.6186 71.2165 42.3497 72.4163 38.9458 72.4163C35.1169 72.4163 32.1391 71.2165 29.7992 69.6631ZM38.4499 60.2015C32.635 60.2015 28.0262 55.6122 28.0262 49.8219V48.2685H35.188V49.8219C35.188 51.5874 36.6769 53.07 38.4499 53.07C40.2939 53.07 41.6408 51.6581 41.6408 49.8219V48.2685H48.8736V49.8219C48.8736 55.5415 44.1227 60.2015 38.4499 60.2015ZM28.0262 62.7437H48.8736C47.6675 66.6979 42.7048 68.5329 38.6629 68.5329H38.2368C34.1251 68.5329 29.0902 66.6979 28.0262 62.7437ZM50.1495 60.2015H49.8666V53.07H50.1495C52.0645 53.07 53.5534 52.364 54.4044 51.4459C55.1844 50.74 55.6093 49.6804 55.6093 48.2685H62.8421C62.8421 55.2586 57.1693 60.2015 50.1495 60.2015ZM49.8666 69.9448V62.7437H63.5511C59.7222 66.2736 53.9085 69.3096 49.8666 69.9448ZM64.26 60.2015H63.9061V48.2685H73.2658C71.7059 52.9993 67.664 58.3653 64.26 60.2015ZM6.47095 36.6183V36.4061C6.47095 31.9582 8.81087 28.2162 12.9936 26.5922L12.9226 46.503C9.30679 44.8082 6.47095 40.9955 6.47095 36.6183ZM14.3417 36.5476C14.3417 31.0401 18.8085 26.5922 24.3393 26.5922H26.2543V33.7237H24.3393C22.7794 33.7237 21.5035 34.9942 21.5035 36.5476C21.5035 38.1009 22.8504 39.3007 24.3393 39.3007H26.2543V46.503H24.3393C18.8085 46.503 14.3417 41.9843 14.3417 36.5476ZM12.9936 12.9643V24.8267H4.62695C6.39994 19.5313 9.73287 15.1529 12.9936 12.9643ZM21.5035 24.4731V24.8267H14.3417V24.4731C14.3417 17.5537 19.3044 12.7522 26.2543 12.7522V19.8837C24.4814 19.8837 23.4173 20.3787 22.7794 21.0847C22.1414 21.7199 21.5035 22.7783 21.5035 24.4731ZM26.2543 3.78511V10.2807H14.3417C17.7445 7.17434 22.7084 4.4206 26.2543 3.78511ZM35.188 23.1319V24.8267H28.0262V23.1319C28.0262 17.3415 32.706 12.7522 38.4499 12.7522C44.1937 12.7522 48.8736 17.3415 48.8736 23.1319V24.8267H41.6408V23.1319C41.6408 21.2249 40.2939 19.8837 38.4499 19.8837C37.5279 19.8837 36.6769 20.2373 36.181 20.8018C35.614 21.3664 35.188 22.2138 35.188 23.1319ZM48.8736 10.2807H28.0262C29.3032 6.25646 34.1961 4.27941 38.3079 4.27941H38.5209C42.6338 4.27941 47.5977 6.25646 48.8736 10.2807ZM50.0075 19.8837H49.8666V12.7522H50.0075C57.0982 12.7522 62.8421 17.6951 62.8421 24.8267H55.6093C55.6093 21.5078 53.1285 19.8837 50.0075 19.8837ZM73.2658 24.8267H63.9061V12.7522C67.664 15.2236 71.7769 19.602 73.2658 24.8267ZM47.0296 3.22033H30.1542C33.0611 1.52566 36.1099 0.607788 38.9458 0.607788C41.5698 0.607788 44.1227 1.52566 47.0296 3.22033ZM62.2752 10.2807H49.8666V3.22033C54.3334 4.2794 58.9422 6.96255 62.2752 10.2807Z" fill="white"/>
</g>
<defs>
<filter id="filter0_d_2688_9323" x="0.364658" y="0.607788" width="77.1633" height="80.3331" filterUnits="userSpaceOnUse" color-interpolation-filters="sRGB">
<feFlood flood-opacity="0" result="BackgroundImageFix"/>
<feColorMatrix in="SourceAlpha" type="matrix" values="0 0 0 0 0 0 0 0 0 0 0 0 0 0 0 0 0 0 127 0" result="hardAlpha"/>
<feOffset dy="4.2623"/>
<feGaussianBlur stdDeviation="2.13115"/>
<feComposite in2="hardAlpha" operator="out"/>
<feColorMatrix type="matrix" values="0 0 0 0 0 0 0 0 0 0 0 0 0 0 0 0 0 0 0.15 0"/>
<feBlend mode="normal" in2="BackgroundImageFix" result="effect1_dropShadow_2688_9323"/>
<feBlend mode="normal" in="SourceGraphic" in2="effect1_dropShadow_2688_9323" result="shape"/>
</filter>
</defs>
</svg>
