<svg width="77" height="84" viewBox="0 0 77 84" fill="none" xmlns="http://www.w3.org/2000/svg">
<g filter="url(#filter0_d_2688_9320)">
<path d="M13.1439 37.0003C15.1673 38.0441 17.3975 37.7812 18.0786 35.2394C18.6519 33.0996 17.3768 31.6827 14.6491 31.3826C15.9034 32.0763 15.898 33.437 15.5935 34.5735C15.2529 35.8444 14.7154 36.7757 13.1439 37.0003ZM14.6034 41.7634C18.9107 43.4191 21.8301 40.0442 22.78 36.4992C23.7656 32.8209 23.09 28.6267 18.2949 27.9863C21.1825 29.8353 21.0212 33.6625 20.4298 35.8694C19.8562 38.0104 17.9926 41.7402 14.6034 41.7634ZM27.5489 37.777C28.8927 32.7617 27.3795 27.1238 21.3397 26.2939C25.7627 28.0527 26.1832 33.4687 25.1976 37.147C24.2297 40.7592 20.9698 45.405 16.358 44.8858C21.8023 47.1331 26.2407 42.659 27.5489 37.777ZM29.899 38.4067C28.1606 44.8944 22.9079 48.6474 18.0811 47.8557C23.9648 50.0779 30.3643 46.3453 32.3177 39.0548C34.2172 31.9658 31.0789 25.6776 24.3529 24.449C30.0851 26.7014 31.2788 33.2571 29.899 38.4067ZM19.805 50.8271C26.9282 53.5242 34.4555 49.8778 37.018 40.3142C39.5626 30.8178 35.2166 24.206 27.3315 22.7377C34.4904 25.3016 36.6568 32.2619 34.6679 39.6845C32.6607 47.1755 27.0854 52.1322 19.805 50.8271ZM21.5775 53.8823C29.9286 56.8364 38.9333 52.5118 41.8544 41.6101C44.7572 30.7768 39.4206 22.7522 30.3762 21.0452C37.8218 23.614 42.1731 31.0157 39.5031 40.9801C36.8152 51.0117 29.1267 55.2594 21.5775 53.8823ZM46.6222 42.8877C49.8478 30.8495 43.8768 21.4368 33.3725 19.2679C42.0944 22.1785 47.2688 30.8041 44.2046 42.2399C41.1401 53.6767 32.1078 58.6397 23.3501 56.9375C33.129 60.2034 43.3606 55.0602 46.6222 42.8877ZM51.3236 44.1474C54.9254 30.7051 48.0808 19.983 36.3677 17.4902C46.5675 20.7956 52.3422 30.9454 48.9734 43.5177C45.5864 56.1582 35.2421 61.9877 25.074 59.9089C36.1778 63.6006 47.7214 57.5908 51.3236 44.1474ZM39.4802 15.8147C50.6692 19.4584 57.5233 30.6847 53.7423 44.7955C49.9971 58.773 38.3086 65.3188 26.8465 62.9641C39.1772 66.9125 52.1141 60.2728 56.0925 45.4252C60.0349 30.712 52.4198 18.5654 39.4802 15.8147ZM42.4754 14.037C55.2097 18.0936 62.5281 30.8076 58.4426 46.0549C54.3568 61.3033 41.4072 68.8002 28.5696 65.934C42.1594 70.293 56.5247 62.8875 60.8614 46.703C65.2157 30.4525 56.5398 17.1599 42.4754 14.037ZM65.6291 47.9806C70.342 30.3919 60.8607 15.8094 45.5215 12.3438C59.4812 16.6579 67.741 30.6983 63.279 47.3508C58.8169 64.0034 44.4243 72.046 30.361 68.9234C45.1587 73.605 60.916 65.5703 65.6291 47.9806ZM30.346 74.0799L4.35497 67.1157L22.0957 0.906342L48.0867 7.87062C65.4823 12.5318 75.6305 29.7304 70.398 49.2584C65.2369 68.5199 47.7416 78.7411 30.346 74.0799Z" fill="black"/>
</g>
<defs>
<filter id="filter0_d_2688_9320" x="0.0931735" y="0.906342" width="75.9445" height="82.8166" filterUnits="userSpaceOnUse" color-interpolation-filters="sRGB">
<feFlood flood-opacity="0" result="BackgroundImageFix"/>
<feColorMatrix in="SourceAlpha" type="matrix" values="0 0 0 0 0 0 0 0 0 0 0 0 0 0 0 0 0 0 127 0" result="hardAlpha"/>
<feOffset dy="4.2623"/>
<feGaussianBlur stdDeviation="2.13115"/>
<feComposite in2="hardAlpha" operator="out"/>
<feColorMatrix type="matrix" values="0 0 0 0 0 0 0 0 0 0 0 0 0 0 0 0 0 0 0.15 0"/>
<feBlend mode="normal" in2="BackgroundImageFix" result="effect1_dropShadow_2688_9320"/>
<feBlend mode="normal" in="SourceGraphic" in2="effect1_dropShadow_2688_9320" result="shape"/>
</filter>
</defs>
</svg>
