<svg width="56" height="116" viewBox="0 0 56 116" fill="none" xmlns="http://www.w3.org/2000/svg">
<g filter="url(#filter0_d_2688_9325)">
<path d="M43.8616 46.6153L10.1562 53.7796L18.6283 62.0524L40.0823 57.4922L43.8616 46.6153Z" fill="black"/>
<path d="M37.1778 61.1665L22.3965 64.3084L29.5759 85.0852L38.0077 74.9532L37.1778 61.1665Z" fill="black"/>
<path d="M38.6004 78.4327L30.292 88.6166L36.1826 107.39L41.6519 106.227L38.6004 78.4327Z" fill="#837165"/>
<path d="M31.6806 25.9224C34.0316 29.0376 38.1495 36.0982 35.8157 39.4189C33.5652 42.622 29.1063 45.4185 26.9439 46.5335C32.3633 38.6697 29.2628 36.3954 27.0353 36.2412C22.1778 36.2649 21.3077 32.3306 21.48 30.3605C19.6205 37.8173 24.0338 44.3611 26.4726 46.7013L25.5035 46.9072L21.0764 46.3349L14.1219 32.6811L14.582 21.7387L23.7335 14.7495L25.4176 26.2449L31.6806 25.9224Z" fill="#D25A5A"/>
<path d="M38.7903 27.1877C40.442 35.9157 34.0059 42.4121 30.581 44.5693C36.8173 35.7782 33.762 29.3493 31.4545 27.2337C31.8353 29.9773 29.566 30.6615 28.3839 30.6606C22.0057 30.2005 22.4412 20.5748 23.456 15.8195C7.7667 30.6546 18.4469 42.6926 25.7486 46.8575C22.147 48.026 17.9973 47.3282 16.3724 46.8322C9.58322 44.4421 9.36095 39.664 10.0984 37.5736C10.1591 38.6536 10.6859 40.576 12.3076 39.6261C13.9292 38.6762 12.9646 37.5529 12.2795 37.11C5.15082 32.1689 11.116 22.8979 14.9896 18.88C20.0847 12.3495 16.3287 6.91007 13.8137 5.00675C26.3437 2.94865 28.0331 12.3245 27.311 17.2698C26.0809 21.97 28.6911 23.3656 30.1499 23.4757C33.6273 21.7278 32.0608 17.7734 30.8431 16.0146C36.1818 17.301 38.3649 23.9994 38.7903 27.1877Z" fill="#FF676B"/>
<path d="M12.3053 13.3988C9.72576 15.5611 10.1715 18.0556 10.7169 19.0326C7.23457 16.9482 9.28722 14.2925 10.7488 13.2253C12.4823 11.8479 12.336 10.3658 11.7783 9.72781C14.3919 10.5846 13.2186 12.5321 12.3053 13.3988Z" fill="#FF676B"/>
</g>
<defs>
<filter id="filter0_d_2688_9325" x="4.54044" y="4.71609" width="43.5832" height="111.198" filterUnits="userSpaceOnUse" color-interpolation-filters="sRGB">
<feFlood flood-opacity="0" result="BackgroundImageFix"/>
<feColorMatrix in="SourceAlpha" type="matrix" values="0 0 0 0 0 0 0 0 0 0 0 0 0 0 0 0 0 0 127 0" result="hardAlpha"/>
<feOffset dy="4.2623"/>
<feGaussianBlur stdDeviation="2.13115"/>
<feComposite in2="hardAlpha" operator="out"/>
<feColorMatrix type="matrix" values="0 0 0 0 0 0 0 0 0 0 0 0 0 0 0 0 0 0 0.15 0"/>
<feBlend mode="normal" in2="BackgroundImageFix" result="effect1_dropShadow_2688_9325"/>
<feBlend mode="normal" in="SourceGraphic" in2="effect1_dropShadow_2688_9325" result="shape"/>
</filter>
</defs>
</svg>
