<svg width="64" height="69" viewBox="0 0 64 69" fill="none" xmlns="http://www.w3.org/2000/svg">
<path d="M43.8749 8.44732C43.3347 8.44732 43.0647 8.17838 43.0647 7.64166C43.0647 7.23825 43.2672 6.96931 43.6724 6.83484H42.6596V4.82011V3.61069L41.8505 4.41681L41.0402 3.61069L41.8505 2.80445L42.6596 3.61069V2.90518H42.5583V1.696L41.8505 2.40138L41.0402 1.59526L41.8505 0.789017L42.5583 1.49441V0.285217H44.5827H46.6071H48.6304H51.2614V0.688282H52.8807V2.50212H51.2614V2.70371H52.8807V4.51755H51.1601V4.71914H52.8807V6.53344H51.1601V6.73399H52.8807V8.54818H51.06V6.83484H50.1484C50.5536 6.96931 50.7561 7.23825 50.7561 7.64166C50.7561 8.17838 50.4861 8.44732 49.9459 8.44732C49.4069 8.44732 49.1368 8.17838 49.1368 7.64166C49.1368 7.23825 49.3394 6.96931 49.7433 6.83484H48.7317H48.1252C48.5291 6.96931 48.7317 7.23825 48.7317 7.64166C48.7317 8.17838 48.4616 8.44732 47.9226 8.44732C47.3825 8.44732 47.1124 8.17838 47.1124 7.64166C47.1124 7.23825 47.3149 6.96931 47.7201 6.83484H46.7084H46.1007C46.5059 6.96931 46.7084 7.23825 46.7084 7.64166C46.7084 8.17838 46.4383 8.44732 45.8982 8.44732C45.358 8.44732 45.0891 8.17838 45.0891 7.64166C45.0891 7.23825 45.2917 6.96931 45.6956 6.83484H44.684H44.0763C44.4814 6.96931 44.684 7.23825 44.684 7.64166C44.684 8.17838 44.4139 8.44732 43.8749 8.44732ZM60.0658 0.486697L61.0786 2.50212L62.0902 0.486697L63.2031 2.70371H62.1915L63.1018 4.6184H62.0902L63.1018 6.63429H62.0902L63.1018 8.64902H62.0902L63.1018 10.6649H61.0786L62.0902 8.64902H61.0786H60.0658L61.0786 10.6649H59.0541L60.0658 8.64902H59.0541L60.0658 6.63429H59.0541L60.0658 4.6184H59.0541L59.9645 2.70371H58.9529L60.0658 0.486697ZM1.371 8.64902L0.359375 7.64166L1.371 6.63429L0.359375 5.62577L1.371 4.6184L0.359375 3.61069L1.371 2.60298L0.359375 1.59526L1.371 0.587547L2.38262 1.59526L3.39545 0.587547L4.40708 1.59526L5.4187 0.587547L6.43036 1.59526L7.44316 0.587547L8.45478 1.59526L9.46644 0.587547L10.4792 1.59526L11.4909 0.587547L12.5025 1.59526L13.5153 0.587547L14.5269 1.59526L15.5386 0.587547L16.5502 1.59526L17.563 0.587547L18.5746 1.59526L19.5863 0.587547L20.5991 1.59526L21.6107 0.587547L22.6224 1.59526L21.6107 2.60298L22.6224 3.61069L21.6107 4.6184L22.6224 5.62577L23.6352 4.6184L24.6468 5.62577L23.6352 6.63429L24.6468 7.64166L25.6585 6.63429L26.6701 7.64166L25.6585 8.64902L24.6468 7.64166L23.6352 8.64902L22.6224 7.64166L21.6107 8.64902L20.5991 7.64166L19.5863 8.64902L18.5746 7.64166L17.563 8.64902L16.5502 7.64166L15.5386 8.64902L14.5269 7.64166L15.5386 6.63429L14.5269 5.62577L13.5153 6.63429L14.5269 7.64166L13.5153 8.64902L12.5025 7.64166L13.5153 6.63429L12.5025 5.62577L11.4909 6.63429L12.5025 7.64166L11.4909 8.64902L10.4792 7.64166L11.4909 6.63429L10.4792 5.62577L9.46644 6.63429L10.4792 7.64166L9.46644 8.64902L8.45478 7.64166L9.46644 6.63429L8.45478 5.62577L7.44316 6.63429L8.45478 7.64166L7.44316 8.64902L6.43036 7.64166L7.44316 6.63429L6.43036 5.62577L5.4187 6.63429L6.43036 7.64166L5.4187 8.64902L4.40708 7.64166L5.4187 6.63429L4.40708 5.62577L3.39545 6.63429L4.40708 7.64166L3.39545 8.64902L2.38262 7.64166L3.39545 6.63429L2.38262 5.62577L1.371 6.63429L2.38262 7.64166L1.371 8.64902ZM58.9529 2.50212H57.131V0.688282H58.9529V2.50212ZM56.9284 2.50212H55.1077V0.688282H56.9284V2.50212ZM54.9051 2.50212H53.0832V0.688282H54.9051V2.50212ZM39.826 2.40138L39.017 1.59526L39.826 0.789017L40.6363 1.59526L39.826 2.40138ZM1.371 2.60298L2.38262 3.61069L3.39545 2.60298L2.38262 1.59526L1.371 2.60298ZM3.39545 2.60298L4.40708 3.61069L5.4187 2.60298L4.40708 1.59526L3.39545 2.60298ZM5.4187 2.60298L6.43036 3.61069L7.44316 2.60298L6.43036 1.59526L5.4187 2.60298ZM7.44316 2.60298L8.45478 3.61069L9.46644 2.60298L8.45478 1.59526L7.44316 2.60298ZM9.46644 2.60298L10.4792 3.61069L11.4909 2.60298L10.4792 1.59526L9.46644 2.60298ZM11.4909 2.60298L12.5025 3.61069L13.5153 2.60298L12.5025 1.59526L11.4909 2.60298ZM13.5153 2.60298L14.5269 3.61069L15.5386 2.60298L14.5269 1.59526L13.5153 2.60298ZM15.5386 2.60298L16.5502 3.61069L17.563 2.60298L16.5502 1.59526L15.5386 2.60298ZM17.563 2.60298L18.5746 3.61069L19.5863 2.60298L18.5746 1.59526L17.563 2.60298ZM19.5863 2.60298L20.5991 3.61069L21.6107 2.60298L20.5991 1.59526L19.5863 2.60298ZM60.9773 2.70371H60.1671L61.0786 4.6184L61.9889 2.70371H60.9773ZM58.9529 4.51755H57.131V2.70371H58.9529V4.51755ZM56.9284 4.51755H55.1077V2.70371H56.9284V4.51755ZM54.9051 4.51755H53.0832V2.70371H54.9051V4.51755ZM39.826 4.41681L39.017 3.61069L39.826 2.80445L40.6363 3.61069L39.826 4.41681ZM1.371 4.6184L2.38262 5.62577L3.39545 4.6184L2.38262 3.61069L1.371 4.6184ZM3.39545 4.6184L4.40708 5.62577L5.4187 4.6184L4.40708 3.61069L3.39545 4.6184ZM5.4187 4.6184L6.43036 5.62577L7.44316 4.6184L6.43036 3.61069L5.4187 4.6184ZM7.44316 4.6184L8.45478 5.62577L9.46644 4.6184L8.45478 3.61069L7.44316 4.6184ZM9.46644 4.6184L10.4792 5.62577L11.4909 4.6184L10.4792 3.61069L9.46644 4.6184ZM11.4909 4.6184L12.5025 5.62577L13.5153 4.6184L12.5025 3.61069L11.4909 4.6184ZM13.5153 4.6184L14.5269 5.62577L15.5386 4.6184L14.5269 3.61069L13.5153 4.6184ZM15.5386 4.6184L16.5502 5.62577L17.563 4.6184L16.5502 3.61069L15.5386 4.6184ZM17.563 4.6184L18.5746 5.62577L19.5863 4.6184L18.5746 3.61069L17.563 4.6184ZM19.5863 4.6184L20.5991 5.62577L21.6107 4.6184L20.5991 3.61069L19.5863 4.6184ZM61.0786 4.6184H60.0658L61.0786 6.63429L62.0902 4.6184H61.0786ZM58.9529 6.53344H57.131V4.71914H58.9529V6.53344ZM56.9284 6.53344H55.1077V4.71914H56.9284V6.53344ZM54.9051 6.53344H53.0832V4.71914H54.9051V6.53344ZM41.8505 6.43259L41.0402 5.62577L41.8505 4.82011L42.6596 5.62577L41.8505 6.43259ZM39.826 6.43259L39.017 5.62577L39.826 4.82011L40.6363 5.62577L39.826 6.43259ZM15.5386 6.63429L16.5502 7.64166L17.563 6.63429L16.5502 5.62577L15.5386 6.63429ZM17.563 6.63429L18.5746 7.64166L19.5863 6.63429L18.5746 5.62577L17.563 6.63429ZM19.5863 6.63429L20.5991 7.64166L21.6107 6.63429L20.5991 5.62577L19.5863 6.63429ZM21.6107 6.63429L22.6224 7.64166L23.6352 6.63429L22.6224 5.62577L21.6107 6.63429ZM61.0786 6.63429H60.0658L61.0786 8.64902L62.0902 6.63429H61.0786ZM58.9529 8.54818H57.131V6.73399H58.9529V8.54818ZM56.9284 8.54818H55.1077V6.73399H56.9284V8.54818ZM54.9051 8.54818H53.0832V6.73399H54.9051V8.54818ZM41.8505 8.44732L41.0402 7.64166L41.8505 6.83484L42.6596 7.64166L41.8505 8.44732ZM39.826 8.44732L39.017 7.64166L39.826 6.83484L40.6363 7.64166L39.826 8.44732ZM25.6585 10.6649L24.6468 9.65639L25.6585 8.64902L26.6701 9.65639L25.6585 10.6649ZM23.6352 10.6649L22.6224 9.65639L23.6352 8.64902L24.6468 9.65639L23.6352 10.6649ZM21.6107 10.6649L20.5991 9.65639L21.6107 8.64902L22.6224 9.65639L21.6107 10.6649ZM19.5863 10.6649L18.5746 9.65639L19.5863 8.64902L20.5991 9.65639L19.5863 10.6649ZM17.563 10.6649L16.5502 9.65639L17.563 8.64902L18.5746 9.65639L17.563 10.6649ZM15.5386 10.6649L14.5269 9.65639L15.5386 8.64902L16.5502 9.65639L15.5386 10.6649ZM13.5153 10.6649L12.5025 9.65639L13.5153 8.64902L14.5269 9.65639L13.5153 10.6649ZM11.4909 10.6649L10.4792 9.65639L11.4909 8.64902L12.5025 9.65639L11.4909 10.6649ZM9.46644 10.6649L8.45478 9.65639L9.46644 8.64902L10.4792 9.65639L9.46644 10.6649ZM7.44316 10.6649L6.43036 9.65639L7.44316 8.64902L8.45478 9.65639L7.44316 10.6649ZM5.4187 10.6649L4.40708 9.65639L5.4187 8.64902L6.43036 9.65639L5.4187 10.6649ZM3.39545 10.6649L2.38262 9.65639L3.39545 8.64902L4.40708 9.65639L3.39545 10.6649ZM1.371 10.6649L0.359375 9.65639L1.371 8.64902L2.38262 9.65639L1.371 10.6649ZM58.8516 10.4632H57.2322V8.85073H58.8516V10.4632ZM56.8283 10.4632H55.209V8.85073H56.8283V10.4632ZM54.8038 10.4632H53.1845V8.85073H54.8038V10.4632ZM52.7794 10.4632H51.1601V8.85073H52.7794V10.4632ZM49.9459 10.4632C49.4069 10.4632 49.1368 10.1943 49.1368 9.65639C49.1368 9.11967 49.4069 8.85073 49.9459 8.85073C50.4861 8.85073 50.7561 9.11967 50.7561 9.65639C50.7561 10.1943 50.4861 10.4632 49.9459 10.4632ZM47.9226 10.4632C47.3825 10.4632 47.1124 10.1943 47.1124 9.65639C47.1124 9.11967 47.3825 8.85073 47.9226 8.85073C48.4616 8.85073 48.7317 9.11967 48.7317 9.65639C48.7317 10.1943 48.4616 10.4632 47.9226 10.4632ZM45.8982 10.4632C45.358 10.4632 45.0891 10.1943 45.0891 9.65639C45.0891 9.11967 45.358 8.85073 45.8982 8.85073C46.4383 8.85073 46.7084 9.11967 46.7084 9.65639C46.7084 10.1943 46.4383 10.4632 45.8982 10.4632ZM43.8749 10.4632C43.3347 10.4632 43.0647 10.1943 43.0647 9.65639C43.0647 9.11967 43.3347 8.85073 43.8749 8.85073C44.4139 8.85073 44.684 9.11967 44.684 9.65639C44.684 10.1943 44.4139 10.4632 43.8749 10.4632ZM41.8505 10.3624L41.1415 9.65639L41.8505 8.95158L42.5583 9.65639L41.8505 10.3624ZM39.826 10.3624L39.1182 9.65639L39.826 8.95158L40.535 9.65639L39.826 10.3624ZM62.0902 10.6649L63.1018 12.6796H61.0786L62.0902 10.6649ZM60.0658 10.6649L61.0786 12.6796H59.0541L60.0658 10.6649ZM27.6829 12.6796L26.6701 11.6723L27.6829 10.6649L28.6945 11.6723L27.6829 12.6796ZM25.6585 12.6796L24.6468 11.6723L25.6585 10.6649L26.6701 11.6723L25.6585 12.6796ZM23.6352 12.6796L22.6224 11.6723L23.6352 10.6649L24.6468 11.6723L23.6352 12.6796ZM21.6107 12.6796L20.5991 11.6723L21.6107 10.6649L22.6224 11.6723L21.6107 12.6796ZM19.5863 12.6796L18.5746 11.6723L19.5863 10.6649L20.5991 11.6723L19.5863 12.6796ZM17.563 12.6796L16.5502 11.6723L17.563 10.6649L18.5746 11.6723L17.563 12.6796ZM15.5386 12.6796L14.5269 11.6723L15.5386 10.6649L16.5502 11.6723L15.5386 12.6796ZM13.5153 12.6796L12.5025 11.6723L13.5153 10.6649L14.5269 11.6723L13.5153 12.6796ZM11.4909 12.6796L10.4792 11.6723L11.4909 10.6649L12.5025 11.6723L11.4909 12.6796ZM9.46644 12.6796L8.45478 11.6723L9.46644 10.6649L10.4792 11.6723L9.46644 12.6796ZM7.44316 12.6796L6.43036 11.6723L7.44316 10.6649L8.45478 11.6723L7.44316 12.6796ZM5.4187 12.6796L4.40708 11.6723L5.4187 10.6649L6.43036 11.6723L5.4187 12.6796ZM3.39545 12.6796L2.38262 11.6723L3.39545 10.6649L4.40708 11.6723L3.39545 12.6796ZM1.371 12.6796L0.359375 11.6723L1.371 10.6649L2.38262 11.6723L1.371 12.6796ZM58.8516 12.4779H57.2322V10.8666H58.8516V12.4779ZM56.8283 12.4779H55.209V10.8666H56.8283V12.4779ZM54.8038 12.4779H53.1845V10.8666H54.8038V12.4779ZM52.7794 12.4779H51.1601V10.8666H52.7794V12.4779ZM49.9459 12.4779C49.4069 12.4779 49.1368 12.2102 49.1368 11.6723C49.1368 11.1344 49.4069 10.8666 49.9459 10.8666C50.4861 10.8666 50.7561 11.1344 50.7561 11.6723C50.7561 12.2102 50.4861 12.4779 49.9459 12.4779ZM47.9226 12.4779C47.3825 12.4779 47.1124 12.2102 47.1124 11.6723C47.1124 11.1344 47.3825 10.8666 47.9226 10.8666C48.4616 10.8666 48.7317 11.1344 48.7317 11.6723C48.7317 12.2102 48.4616 12.4779 47.9226 12.4779ZM45.8982 12.4779C45.358 12.4779 45.0891 12.2102 45.0891 11.6723C45.0891 11.1344 45.358 10.8666 45.8982 10.8666C46.4383 10.8666 46.7084 11.1344 46.7084 11.6723C46.7084 12.2102 46.4383 12.4779 45.8982 12.4779ZM43.8749 12.4779C43.3347 12.4779 43.0647 12.2102 43.0647 11.6723C43.0647 11.1344 43.3347 10.8666 43.8749 10.8666C44.4139 10.8666 44.684 11.1344 44.684 11.6723C44.684 12.2102 44.4139 12.4779 43.8749 12.4779ZM41.8505 12.3782L41.1415 11.6723L41.8505 10.9675L42.5583 11.6723L41.8505 12.3782ZM39.826 12.3782L39.1182 11.6723L39.826 10.9675L40.535 11.6723L39.826 12.3782ZM62.0902 12.6796L63.1018 14.6955H61.0786L62.0902 12.6796ZM60.0658 12.6796L61.0786 14.6955H59.0541L60.0658 12.6796ZM27.6829 14.6955L26.6701 13.6882L27.6829 12.6796L28.6945 13.6882L27.6829 14.6955ZM25.6585 14.6955L24.6468 13.6882L25.6585 12.6796L26.6701 13.6882L25.6585 14.6955ZM23.6352 14.6955L22.6224 13.6882L23.6352 12.6796L24.6468 13.6882L23.6352 14.6955ZM21.6107 14.6955L20.5991 13.6882L21.6107 12.6796L22.6224 13.6882L21.6107 14.6955ZM19.5863 14.6955L18.5746 13.6882L19.5863 12.6796L20.5991 13.6882L19.5863 14.6955ZM17.563 14.6955L16.5502 13.6882L17.563 12.6796L18.5746 13.6882L17.563 14.6955ZM15.5386 14.6955L14.5269 13.6882L15.5386 12.6796L16.5502 13.6882L15.5386 14.6955ZM13.5153 14.6955L12.5025 13.6882L13.5153 12.6796L14.5269 13.6882L13.5153 14.6955ZM11.4909 14.6955L10.4792 13.6882L11.4909 12.6796L12.5025 13.6882L11.4909 14.6955ZM9.46644 14.6955L8.45478 13.6882L9.46644 12.6796L10.4792 13.6882L9.46644 14.6955ZM7.44316 14.5947L6.53165 13.6882L7.44316 12.6796L8.45478 13.6882L7.44316 14.5947ZM5.4187 14.5947L4.50836 13.6882L5.4187 12.7805L6.33025 13.6882L5.4187 14.5947ZM3.39545 14.5947L2.48391 13.6882L3.39545 12.7805L4.30579 13.6882L3.39545 14.5947ZM1.371 14.5947L0.460626 13.6882L1.371 12.7805L2.28137 13.6882L1.371 14.5947ZM58.8516 14.4938H57.2322V12.8814H58.8516V14.4938ZM56.8283 14.4938H55.209V12.8814H56.8283V14.4938ZM54.8038 14.4938H53.1845V12.8814H54.8038V14.4938ZM52.7794 14.4938H51.1601V12.8814H52.7794V14.4938ZM49.9459 14.4938C49.4069 14.4938 49.1368 14.2249 49.1368 13.6882C49.1368 13.1503 49.4069 12.8814 49.9459 12.8814C50.4861 12.8814 50.7561 13.1503 50.7561 13.6882C50.7561 14.2249 50.4861 14.4938 49.9459 14.4938ZM47.9226 14.4938C47.3825 14.4938 47.1124 14.2249 47.1124 13.6882C47.1124 13.1503 47.3825 12.8814 47.9226 12.8814C48.4616 12.8814 48.7317 13.1503 48.7317 13.6882C48.7317 14.2249 48.4616 14.4938 47.9226 14.4938ZM45.8982 14.4938C45.358 14.4938 45.0891 14.2249 45.0891 13.6882C45.0891 13.1503 45.358 12.8814 45.8982 12.8814C46.4383 12.8814 46.7084 13.1503 46.7084 13.6882C46.7084 14.2249 46.4383 14.4938 45.8982 14.4938ZM43.8749 14.4938C43.3347 14.4938 43.0647 14.2249 43.0647 13.6882C43.0647 13.1503 43.3347 12.8814 43.8749 12.8814C44.4139 12.8814 44.684 13.1503 44.684 13.6882C44.684 14.2249 44.4139 14.4938 43.8749 14.4938ZM41.8505 14.393L41.1415 13.6882L41.8505 12.9822L42.5583 13.6882L41.8505 14.393ZM39.826 14.393L39.1182 13.6882L39.826 12.9822L40.535 13.6882L39.826 14.393ZM62.0902 14.7964L63.0006 16.6106H61.1799L62.0902 14.7964ZM60.0658 14.7964L60.9773 16.6106H59.1554L60.0658 14.7964ZM29.7062 16.6106L28.7958 15.7029L29.7062 14.7964L30.6177 15.7029L29.7062 16.6106ZM27.6829 16.6106L26.7714 15.7029L27.6829 14.7964L28.5932 15.7029L27.6829 16.6106ZM25.6585 16.6106L24.7481 15.7029L25.6585 14.7964L26.5688 15.7029L25.6585 16.6106ZM23.6352 16.6106L22.7237 15.7029L23.6352 14.7964L24.5455 15.7029L23.6352 16.6106ZM21.6107 16.6106L20.7004 15.7029L21.6107 14.7964L22.5211 15.7029L21.6107 16.6106ZM19.5863 16.6106L18.6759 15.7029L19.5863 14.7964L20.4978 15.7029L19.5863 16.6106ZM17.563 16.6106L16.6515 15.7029L17.563 14.7964L18.4734 15.7029L17.563 16.6106ZM15.5386 16.6106L14.6282 15.7029L15.5386 14.7964L16.4489 15.7029L15.5386 16.6106ZM13.5153 16.6106L12.6038 15.7029L13.5153 14.7964L14.4257 15.7029L13.5153 16.6106ZM11.4909 16.6106L10.5805 15.7029L11.4909 14.7964L12.4012 15.7029L11.4909 16.6106ZM9.46644 16.6106L8.55607 15.7029L9.46644 14.7964L10.3779 15.7029L9.46644 16.6106ZM7.44316 16.6106L6.53165 15.7029L7.44316 14.7964L8.35349 15.7029L7.44316 16.6106ZM5.4187 16.6106L4.50836 15.7029L5.4187 14.7964L6.33025 15.7029L5.4187 16.6106ZM3.39545 16.6106L2.48391 15.7029L3.39545 14.7964L4.30579 15.7029L3.39545 16.6106ZM1.371 16.6106L0.460626 15.7029L1.371 14.7964L2.28137 15.7029L1.371 16.6106ZM58.8516 16.5097H57.2322V14.8972H58.8516V16.5097ZM56.8283 16.5097H55.209V14.8972H56.8283V16.5097ZM54.8038 16.5097H53.1845V14.8972H54.8038V16.5097ZM52.7794 16.5097H51.1601V14.8972H52.7794V16.5097ZM49.9459 16.4089C49.4744 16.4089 49.2381 16.1735 49.2381 15.7029C49.2381 15.2334 49.4744 14.9981 49.9459 14.9981C50.4186 14.9981 50.6548 15.2334 50.6548 15.7029C50.6548 16.1735 50.4186 16.4089 49.9459 16.4089ZM47.9226 16.4089C47.45 16.4089 47.2137 16.1735 47.2137 15.7029C47.2137 15.2334 47.45 14.9981 47.9226 14.9981C48.3941 14.9981 48.6304 15.2334 48.6304 15.7029C48.6304 16.1735 48.3941 16.4089 47.9226 16.4089ZM45.8982 16.4089C45.4255 16.4089 45.1904 16.1735 45.1904 15.7029C45.1904 15.2334 45.4255 14.9981 45.8982 14.9981C46.3708 14.9981 46.6071 15.2334 46.6071 15.7029C46.6071 16.1735 46.3708 16.4089 45.8982 16.4089ZM43.8749 16.4089C43.4022 16.4089 43.166 16.1735 43.166 15.7029C43.166 15.2334 43.4022 14.9981 43.8749 14.9981C44.3464 14.9981 44.5827 15.2334 44.5827 15.7029C44.5827 16.1735 44.3464 16.4089 43.8749 16.4089ZM41.8505 16.4089L41.1415 15.7029L41.8505 14.9981L42.5583 15.7029L41.8505 16.4089ZM39.826 16.4089L39.1182 15.7029L39.826 14.9981L40.535 15.7029L39.826 16.4089ZM62.0902 16.8111L63.0006 18.6253H61.1799L62.0902 16.8111ZM60.0658 16.8111L60.9773 18.6253H59.1554L60.0658 16.8111ZM31.7306 18.6253L30.8202 17.7188L31.7306 16.8111L32.6409 17.7188L31.7306 18.6253ZM29.7062 18.6253L28.7958 17.7188L29.7062 16.8111L30.6177 17.7188L29.7062 18.6253ZM27.6829 18.6253L26.7714 17.7188L27.6829 16.8111L28.5932 17.7188L27.6829 18.6253ZM25.6585 18.6253L24.7481 17.7188L25.6585 16.8111L26.5688 17.7188L25.6585 18.6253ZM23.6352 18.6253L22.7237 17.7188L23.6352 16.8111L24.5455 17.7188L23.6352 18.6253ZM21.6107 18.6253L20.7004 17.7188L21.6107 16.8111L22.5211 17.7188L21.6107 18.6253ZM19.5863 18.6253L18.6759 17.7188L19.5863 16.8111L20.4978 17.7188L19.5863 18.6253ZM17.563 18.6253L16.6515 17.7188L17.563 16.8111L18.4734 17.7188L17.563 18.6253ZM15.5386 18.6253L14.6282 17.7188L15.5386 16.8111L16.4489 17.7188L15.5386 18.6253ZM13.5153 18.6253L12.6038 17.7188L13.5153 16.8111L14.4257 17.7188L13.5153 18.6253ZM11.4909 18.6253L10.5805 17.7188L11.4909 16.8111L12.4012 17.7188L11.4909 18.6253ZM9.46644 18.6253L8.55607 17.7188L9.46644 16.8111L10.3779 17.7188L9.46644 18.6253ZM7.44316 18.6253L6.53165 17.7188L7.44316 16.8111L8.35349 17.7188L7.44316 18.6253ZM5.4187 18.6253L4.50836 17.7188L5.4187 16.8111L6.33025 17.7188L5.4187 18.6253ZM3.39545 18.6253L2.48391 17.7188L3.39545 16.8111L4.30579 17.7188L3.39545 18.6253ZM1.371 18.6253L0.460626 17.7188L1.371 16.8111L2.28137 17.7188L1.371 18.6253ZM58.8516 18.5245H57.2322V16.912H58.8516V18.5245ZM56.8283 18.5245H55.209V16.912H56.8283V18.5245ZM54.8038 18.5245H53.1845V16.912H54.8038V18.5245ZM52.7794 18.5245H51.1601V16.912H52.7794V18.5245ZM49.9459 18.4236C49.4744 18.4236 49.2381 18.1894 49.2381 17.7188C49.2381 17.2481 49.4744 17.0128 49.9459 17.0128C50.4186 17.0128 50.6548 17.2481 50.6548 17.7188C50.6548 18.1894 50.4186 18.4236 49.9459 18.4236ZM47.9226 18.4236C47.45 18.4236 47.2137 18.1894 47.2137 17.7188C47.2137 17.2481 47.45 17.0128 47.9226 17.0128C48.3941 17.0128 48.6304 17.2481 48.6304 17.7188C48.6304 18.1894 48.3941 18.4236 47.9226 18.4236ZM45.8982 18.4236C45.4255 18.4236 45.1904 18.1894 45.1904 17.7188C45.1904 17.2481 45.4255 17.0128 45.8982 17.0128C46.3708 17.0128 46.6071 17.2481 46.6071 17.7188C46.6071 18.1894 46.3708 18.4236 45.8982 18.4236ZM43.8749 18.4236C43.4022 18.4236 43.166 18.1894 43.166 17.7188C43.166 17.2481 43.4022 17.0128 43.8749 17.0128C44.3464 17.0128 44.5827 17.2481 44.5827 17.7188C44.5827 18.1894 44.3464 18.4236 43.8749 18.4236ZM41.8505 18.4236L41.1415 17.7188L41.8505 17.0128L42.5583 17.7188L41.8505 18.4236ZM39.826 18.4236L39.1182 17.7188L39.826 17.0128L40.535 17.7188L39.826 18.4236ZM62.0902 18.827L63.0006 20.6412H61.1799L62.0902 18.827ZM60.0658 18.827L60.9773 20.6412H59.1554L60.0658 18.827ZM31.7306 20.6412L30.8202 19.7335L31.7306 18.827L32.6409 19.7335L31.7306 20.6412ZM29.7062 20.6412L28.7958 19.7335L29.7062 18.827L30.6177 19.7335L29.7062 20.6412ZM27.6829 20.6412L26.7714 19.7335L27.6829 18.827L28.5932 19.7335L27.6829 20.6412ZM25.6585 20.6412L24.7481 19.7335L25.6585 18.827L26.5688 19.7335L25.6585 20.6412ZM23.6352 20.6412L22.7237 19.7335L23.6352 18.827L24.5455 19.7335L23.6352 20.6412ZM21.6107 20.6412L20.7004 19.7335L21.6107 18.827L22.5211 19.7335L21.6107 20.6412ZM19.5863 20.6412L18.6759 19.7335L19.5863 18.827L20.4978 19.7335L19.5863 20.6412ZM17.563 20.6412L16.6515 19.7335L17.563 18.827L18.4734 19.7335L17.563 20.6412ZM15.5386 20.6412L14.6282 19.7335L15.5386 18.827L16.4489 19.7335L15.5386 20.6412ZM13.5153 20.6412L12.6038 19.7335L13.5153 18.827L14.4257 19.7335L13.5153 20.6412ZM11.4909 20.6412L10.5805 19.7335L11.4909 18.827L12.4012 19.7335L11.4909 20.6412ZM9.46644 20.6412L8.55607 19.7335L9.46644 18.827L10.3779 19.7335L9.46644 20.6412ZM7.44316 20.6412L6.53165 19.7335L7.44316 18.827L8.35349 19.7335L7.44316 20.6412ZM5.4187 20.6412L4.50836 19.7335L5.4187 18.827L6.33025 19.7335L5.4187 20.6412ZM3.39545 20.6412L2.48391 19.7335L3.39545 18.827L4.30579 19.7335L3.39545 20.6412ZM1.371 20.6412L0.460626 19.7335L1.371 18.827L2.28137 19.7335L1.371 20.6412ZM58.8516 20.5403H57.2322V18.9279H58.8516V20.5403ZM56.8283 20.5403H55.209V18.9279H56.8283V20.5403ZM54.8038 20.5403H53.1845V18.9279H54.8038V20.5403ZM52.7794 20.5403H51.1601V18.9279H52.7794V20.5403ZM49.9459 20.4395C49.4744 20.4395 49.2381 20.2042 49.2381 19.7335C49.2381 19.264 49.4744 19.0287 49.9459 19.0287C50.4186 19.0287 50.6548 19.264 50.6548 19.7335C50.6548 20.2042 50.4186 20.4395 49.9459 20.4395ZM47.9226 20.4395C47.45 20.4395 47.2137 20.2042 47.2137 19.7335C47.2137 19.264 47.45 19.0287 47.9226 19.0287C48.3941 19.0287 48.6304 19.264 48.6304 19.7335C48.6304 20.2042 48.3941 20.4395 47.9226 20.4395ZM45.8982 20.4395C45.4255 20.4395 45.1904 20.2042 45.1904 19.7335C45.1904 19.264 45.4255 19.0287 45.8982 19.0287C46.3708 19.0287 46.6071 19.264 46.6071 19.7335C46.6071 20.2042 46.3708 20.4395 45.8982 20.4395ZM43.8749 20.4395C43.4022 20.4395 43.166 20.2042 43.166 19.7335C43.166 19.264 43.4022 19.0287 43.8749 19.0287C44.3464 19.0287 44.5827 19.264 44.5827 19.7335C44.5827 20.2042 44.3464 20.4395 43.8749 20.4395ZM41.8505 20.4395L41.1415 19.7335L41.8505 19.0287L42.5583 19.7335L41.8505 20.4395ZM39.826 20.4395L39.1182 19.7335L39.826 19.0287L40.535 19.7335L39.826 20.4395ZM62.0902 20.8429L63.0006 22.6559H61.1799L62.0902 20.8429ZM60.0658 20.8429L60.9773 22.6559H59.1554L60.0658 20.8429ZM31.7306 22.6559L30.8202 21.7494L31.7306 20.8429L32.6409 21.7494L31.7306 22.6559ZM29.7062 22.6559L28.7958 21.7494L29.7062 20.8429L30.6177 21.7494L29.7062 22.6559ZM27.6829 22.6559L26.7714 21.7494L27.6829 20.8429L28.5932 21.7494L27.6829 22.6559ZM25.6585 22.6559L24.7481 21.7494L25.6585 20.8429L26.5688 21.7494L25.6585 22.6559ZM23.6352 22.6559L22.7237 21.7494L23.6352 20.8429L24.5455 21.7494L23.6352 22.6559ZM21.6107 22.6559L20.7004 21.7494L21.6107 20.8429L22.5211 21.7494L21.6107 22.6559ZM19.5863 22.6559L18.6759 21.7494L19.5863 20.8429L20.4978 21.7494L19.5863 22.6559ZM17.563 22.6559L16.6515 21.7494L17.563 20.8429L18.4734 21.7494L17.563 22.6559ZM15.5386 22.6559L14.6282 21.7494L15.5386 20.8429L16.4489 21.7494L15.5386 22.6559ZM13.5153 22.6559L12.6038 21.7494L13.5153 20.8429L14.4257 21.7494L13.5153 22.6559ZM11.4909 22.6559L10.5805 21.7494L11.4909 20.8429L12.4012 21.7494L11.4909 22.6559ZM9.46644 22.6559L8.55607 21.7494L9.46644 20.8429L10.3779 21.7494L9.46644 22.6559ZM7.44316 22.6559L6.53165 21.7494L7.44316 20.8429L8.35349 21.7494L7.44316 22.6559ZM5.4187 22.6559L4.50836 21.7494L5.4187 20.8429L6.33025 21.7494L5.4187 22.6559ZM3.39545 22.6559L2.48391 21.7494L3.39545 20.8429L4.30579 21.7494L3.39545 22.6559ZM1.371 22.6559L0.460626 21.7494L1.371 20.8429L2.28137 21.7494L1.371 22.6559ZM58.7503 22.4554H57.3335V21.0446H58.7503V22.4554ZM56.727 22.4554H55.3102V21.0446H56.727V22.4554ZM54.7026 22.4554H53.2858V21.0446H54.7026V22.4554ZM52.6781 22.4554H51.2614V21.0446H52.6781V22.4554ZM49.9459 22.4554C49.4744 22.4554 49.2381 22.2201 49.2381 21.7494C49.2381 21.2788 49.4744 21.0446 49.9459 21.0446C50.4186 21.0446 50.6548 21.2788 50.6548 21.7494C50.6548 22.2201 50.4186 22.4554 49.9459 22.4554ZM47.9226 22.4554C47.45 22.4554 47.2137 22.2201 47.2137 21.7494C47.2137 21.2788 47.45 21.0446 47.9226 21.0446C48.3941 21.0446 48.6304 21.2788 48.6304 21.7494C48.6304 22.2201 48.3941 22.4554 47.9226 22.4554ZM45.8982 22.4554C45.4255 22.4554 45.1904 22.2201 45.1904 21.7494C45.1904 21.2788 45.4255 21.0446 45.8982 21.0446C46.3708 21.0446 46.6071 21.2788 46.6071 21.7494C46.6071 22.2201 46.3708 22.4554 45.8982 22.4554ZM43.8749 22.4554C43.4022 22.4554 43.166 22.2201 43.166 21.7494C43.166 21.2788 43.4022 21.0446 43.8749 21.0446C44.3464 21.0446 44.5827 21.2788 44.5827 21.7494C44.5827 22.2201 44.3464 22.4554 43.8749 22.4554ZM41.8505 22.3545L41.2428 21.7494L41.8505 21.1443L42.457 21.7494L41.8505 22.3545ZM39.826 22.3545L39.2195 21.7494L39.826 21.1443L40.4337 21.7494L39.826 22.3545ZM33.755 22.3545L33.1473 21.7494L33.755 21.1443L34.3615 21.7494L33.755 22.3545ZM62.0902 22.8576L63.0006 24.6718H61.1799L62.0902 22.8576ZM60.0658 22.8576L60.9773 24.6718H59.1554L60.0658 22.8576ZM31.7306 24.6718L30.8202 23.7653L31.7306 22.8576L32.6409 23.7653L31.7306 24.6718ZM29.7062 24.6718L28.7958 23.7653L29.7062 22.8576L30.6177 23.7653L29.7062 24.6718ZM27.6829 24.6718L26.7714 23.7653L27.6829 22.8576L28.5932 23.7653L27.6829 24.6718ZM25.6585 24.6718L24.7481 23.7653L25.6585 22.8576L26.5688 23.7653L25.6585 24.6718ZM23.6352 24.6718L22.7237 23.7653L23.6352 22.8576L24.5455 23.7653L23.6352 24.6718ZM21.6107 24.6718L20.7004 23.7653L21.6107 22.8576L22.5211 23.7653L21.6107 24.6718ZM19.5863 24.6718L18.6759 23.7653L19.5863 22.8576L20.4978 23.7653L19.5863 24.6718ZM17.563 24.6718L16.6515 23.7653L17.563 22.8576L18.4734 23.7653L17.563 24.6718ZM15.5386 24.6718L14.6282 23.7653L15.5386 22.8576L16.4489 23.7653L15.5386 24.6718ZM13.5153 24.6718L12.6038 23.7653L13.5153 22.8576L14.4257 23.7653L13.5153 24.6718ZM11.4909 24.6718L10.5805 23.7653L11.4909 22.8576L12.4012 23.7653L11.4909 24.6718ZM9.46644 24.6718L8.55607 23.7653L9.46644 22.8576L10.3779 23.7653L9.46644 24.6718ZM7.44316 24.6718L6.53165 23.7653L7.44316 22.8576L8.35349 23.7653L7.44316 24.6718ZM5.4187 24.6718L4.50836 23.7653L5.4187 22.8576L6.33025 23.7653L5.4187 24.6718ZM3.39545 24.6718L2.48391 23.7653L3.39545 22.8576L4.30579 23.7653L3.39545 24.6718ZM1.371 24.6718L0.460626 23.7653L1.371 22.8576L2.28137 23.7653L1.371 24.6718ZM58.7503 24.4701H57.3335V23.0593H58.7503V24.4701ZM56.727 24.4701H55.3102V23.0593H56.727V24.4701ZM54.7026 24.4701H53.2858V23.0593H54.7026V24.4701ZM52.6781 24.4701H51.2614V23.0593H52.6781V24.4701ZM49.9459 24.4701C49.4744 24.4701 49.2381 24.2348 49.2381 23.7653C49.2381 23.2947 49.4744 23.0593 49.9459 23.0593C50.4186 23.0593 50.6548 23.2947 50.6548 23.7653C50.6548 24.2348 50.4186 24.4701 49.9459 24.4701ZM47.9226 24.4701C47.45 24.4701 47.2137 24.2348 47.2137 23.7653C47.2137 23.2947 47.45 23.0593 47.9226 23.0593C48.3941 23.0593 48.6304 23.2947 48.6304 23.7653C48.6304 24.2348 48.3941 24.4701 47.9226 24.4701ZM45.8982 24.4701C45.4255 24.4701 45.1904 24.2348 45.1904 23.7653C45.1904 23.2947 45.4255 23.0593 45.8982 23.0593C46.3708 23.0593 46.6071 23.2947 46.6071 23.7653C46.6071 24.2348 46.3708 24.4701 45.8982 24.4701ZM43.8749 24.4701C43.4022 24.4701 43.166 24.2348 43.166 23.7653C43.166 23.2947 43.4022 23.0593 43.8749 23.0593C44.3464 23.0593 44.5827 23.2947 44.5827 23.7653C44.5827 24.2348 44.3464 24.4701 43.8749 24.4701ZM41.8505 24.3693L41.2428 23.7653L41.8505 23.1602L42.457 23.7653L41.8505 24.3693ZM39.826 24.3693L39.2195 23.7653L39.826 23.1602L40.4337 23.7653L39.826 24.3693ZM33.755 24.3693L33.1473 23.7653L33.755 23.1602L34.3615 23.7653L33.755 24.3693ZM62.0902 24.8735L63.0006 26.6877H61.1799L62.0902 24.8735ZM60.0658 24.8735L60.9773 26.6877H59.1554L60.0658 24.8735ZM31.7306 26.6877L30.8202 25.78L31.7306 24.8735L32.6409 25.78L31.7306 26.6877ZM29.7062 26.6877L28.7958 25.78L29.7062 24.8735L30.6177 25.78L29.7062 26.6877ZM27.6829 26.6877L26.7714 25.78L27.6829 24.8735L28.5932 25.78L27.6829 26.6877ZM25.6585 26.6877L24.7481 25.78L25.6585 24.8735L26.5688 25.78L25.6585 26.6877ZM23.6352 26.6877L22.7237 25.78L23.6352 24.8735L24.5455 25.78L23.6352 26.6877ZM21.6107 26.6877L20.7004 25.78L21.6107 24.8735L22.5211 25.78L21.6107 26.6877ZM19.5863 26.6877L18.6759 25.78L19.5863 24.8735L20.4978 25.78L19.5863 26.6877ZM17.563 26.6877L16.6515 25.78L17.563 24.8735L18.4734 25.78L17.563 26.6877ZM15.5386 26.6877L14.6282 25.78L15.5386 24.8735L16.4489 25.78L15.5386 26.6877ZM13.5153 26.6877L12.6038 25.78L13.5153 24.8735L14.4257 25.78L13.5153 26.6877ZM11.4909 26.6877L10.5805 25.78L11.4909 24.8735L12.4012 25.78L11.4909 26.6877ZM9.46644 26.6877L8.55607 25.78L9.46644 24.8735L10.3779 25.78L9.46644 26.6877ZM7.44316 26.6877L6.53165 25.78L7.44316 24.8735L8.35349 25.78L7.44316 26.6877ZM5.4187 26.6877L4.50836 25.78L5.4187 24.8735L6.33025 25.78L5.4187 26.6877ZM3.39545 26.6877L2.48391 25.78L3.39545 24.8735L4.30579 25.78L3.39545 26.6877ZM1.371 26.6877L0.460626 25.78L1.371 24.8735L2.28137 25.78L1.371 26.6877ZM58.7503 26.486H57.3335V25.0752H58.7503V26.486ZM56.727 26.486H55.3102V25.0752H56.727V26.486ZM54.7026 26.486H53.2858V25.0752H54.7026V26.486ZM52.6781 26.486H51.2614V25.0752H52.6781V26.486ZM49.9459 26.486C49.4744 26.486 49.2381 26.2507 49.2381 25.78C49.2381 25.3106 49.4744 25.0752 49.9459 25.0752C50.4186 25.0752 50.6548 25.3106 50.6548 25.78C50.6548 26.2507 50.4186 26.486 49.9459 26.486ZM47.9226 26.486C47.45 26.486 47.2137 26.2507 47.2137 25.78C47.2137 25.3106 47.45 25.0752 47.9226 25.0752C48.3941 25.0752 48.6304 25.3106 48.6304 25.78C48.6304 26.2507 48.3941 26.486 47.9226 26.486ZM45.8982 26.486C45.4255 26.486 45.1904 26.2507 45.1904 25.78C45.1904 25.3106 45.4255 25.0752 45.8982 25.0752C46.3708 25.0752 46.6071 25.3106 46.6071 25.78C46.6071 26.2507 46.3708 26.486 45.8982 26.486ZM43.8749 26.486C43.4022 26.486 43.166 26.2507 43.166 25.78C43.166 25.3106 43.4022 25.0752 43.8749 25.0752C44.3464 25.0752 44.5827 25.3106 44.5827 25.78C44.5827 26.2507 44.3464 26.486 43.8749 26.486ZM41.8505 26.3852L41.2428 25.78L41.8505 25.1761L42.457 25.78L41.8505 26.3852ZM39.826 26.3852L39.2195 25.78L39.826 25.1761L40.4337 25.78L39.826 26.3852ZM35.7783 26.3852L35.1718 25.78L35.7783 25.1761L36.386 25.78L35.7783 26.3852ZM33.755 26.3852L33.1473 25.78L33.755 25.1761L34.3615 25.78L33.755 26.3852ZM62.0902 26.8883L63.0006 28.7024H61.1799L62.0902 26.8883ZM60.0658 26.8883L60.9773 28.7024H59.1554L60.0658 26.8883ZM31.7306 28.6016L30.9204 27.7959L31.7306 26.9891L32.5397 27.7959L31.7306 28.6016ZM29.7062 28.6016L28.8971 27.7959L29.7062 26.9891L30.5164 27.7959L29.7062 28.6016ZM27.6829 28.6016L26.8727 27.7959L27.6829 26.9891L28.492 27.7959L27.6829 28.6016ZM25.6585 28.6016L24.8494 27.7959L25.6585 26.9891L26.4687 27.7959L25.6585 28.6016ZM23.6352 28.6016L22.8249 27.7959L23.6352 26.9891L24.4443 27.7959L23.6352 28.6016ZM21.6107 28.6016L20.8005 27.7959L21.6107 26.9891L22.4198 27.7959L21.6107 28.6016ZM19.5863 28.6016L18.7772 27.7959L19.5863 26.9891L20.3965 27.7959L19.5863 28.6016ZM17.563 28.6016L16.7528 27.7959L17.563 26.9891L18.3721 27.7959L17.563 28.6016ZM15.5386 28.6016L14.7295 27.7959L15.5386 26.9891L16.3488 27.7959L15.5386 28.6016ZM13.5153 28.6016L12.7051 27.7959L13.5153 26.9891L14.3244 27.7959L13.5153 28.6016ZM11.4909 28.6016L10.6806 27.7959L11.4909 26.9891L12.2999 27.7959L11.4909 28.6016ZM9.46644 28.6016L8.65735 27.7959L9.46644 26.9891L10.2767 27.7959L9.46644 28.6016ZM7.44316 28.6016L6.6329 27.7959L7.44316 26.9891L8.25224 27.7959L7.44316 28.6016ZM5.4187 28.6016L4.60965 27.7959L5.4187 26.9891L6.22896 27.7959L5.4187 28.6016ZM3.39545 28.6016L2.5852 27.7959L3.39545 26.9891L4.2045 27.7959L3.39545 28.6016ZM1.371 28.6016L0.561913 27.7959L1.371 26.9891L2.18008 27.7959L1.371 28.6016ZM58.7503 28.5007H57.3335V27.09H58.7503V28.5007ZM56.727 28.5007H55.3102V27.09H56.727V28.5007ZM54.7026 28.5007H53.2858V27.09H54.7026V28.5007ZM52.6781 28.5007H51.2614V27.09H52.6781V28.5007ZM49.9459 28.3999C49.542 28.3999 49.3394 28.1993 49.3394 27.7959C49.3394 27.3925 49.542 27.1908 49.9459 27.1908C50.351 27.1908 50.5536 27.3925 50.5536 27.7959C50.5536 28.1993 50.351 28.3999 49.9459 28.3999ZM47.9226 28.3999C47.5175 28.3999 47.3149 28.1993 47.3149 27.7959C47.3149 27.3925 47.5175 27.1908 47.9226 27.1908C48.3266 27.1908 48.5291 27.3925 48.5291 27.7959C48.5291 28.1993 48.3266 28.3999 47.9226 28.3999ZM45.8982 28.3999C45.493 28.3999 45.2917 28.1993 45.2917 27.7959C45.2917 27.3925 45.493 27.1908 45.8982 27.1908C46.3033 27.1908 46.5059 27.3925 46.5059 27.7959C46.5059 28.1993 46.3033 28.3999 45.8982 28.3999ZM43.8749 28.3999C43.4698 28.3999 43.2672 28.1993 43.2672 27.7959C43.2672 27.3925 43.4698 27.1908 43.8749 27.1908C44.2788 27.1908 44.4814 27.3925 44.4814 27.7959C44.4814 28.1993 44.2788 28.3999 43.8749 28.3999ZM41.8505 28.3999L41.2428 27.7959L41.8505 27.1908L42.457 27.7959L41.8505 28.3999ZM39.826 28.3999L39.2195 27.7959L39.826 27.1908L40.4337 27.7959L39.826 28.3999ZM37.8028 28.3999L37.1951 27.7959L37.8028 27.1908L38.4093 27.7959L37.8028 28.3999ZM35.7783 28.3999L35.1718 27.7959L35.7783 27.1908L36.386 27.7959L35.7783 28.3999ZM33.755 28.3999L33.1473 27.7959L33.755 27.1908L34.3615 27.7959L33.755 28.3999ZM62.0902 29.005L62.8993 30.6175H61.28L62.0902 29.005ZM60.0658 29.005L60.876 30.6175H59.2567L60.0658 29.005ZM31.7306 30.6175L30.9204 29.8107L31.7306 29.005L32.5397 29.8107L31.7306 30.6175ZM29.7062 30.6175L28.8971 29.8107L29.7062 29.005L30.5164 29.8107L29.7062 30.6175ZM27.6829 30.6175L26.8727 29.8107L27.6829 29.005L28.492 29.8107L27.6829 30.6175ZM25.6585 30.6175L24.8494 29.8107L25.6585 29.005L26.4687 29.8107L25.6585 30.6175ZM23.6352 30.6175L22.8249 29.8107L23.6352 29.005L24.4443 29.8107L23.6352 30.6175ZM21.6107 30.6175L20.8005 29.8107L21.6107 29.005L22.4198 29.8107L21.6107 30.6175ZM19.5863 30.6175L18.7772 29.8107L19.5863 29.005L20.3965 29.8107L19.5863 30.6175ZM17.563 30.6175L16.7528 29.8107L17.563 29.005L18.3721 29.8107L17.563 30.6175ZM15.5386 30.6175L14.7295 29.8107L15.5386 29.005L16.3488 29.8107L15.5386 30.6175ZM13.5153 30.6175L12.7051 29.8107L13.5153 29.005L14.3244 29.8107L13.5153 30.6175ZM11.4909 30.6175L10.6806 29.8107L11.4909 29.005L12.2999 29.8107L11.4909 30.6175ZM9.46644 30.6175L8.65735 29.8107L9.46644 29.005L10.2767 29.8107L9.46644 30.6175ZM7.44316 30.6175L6.6329 29.8107L7.44316 29.005L8.25224 29.8107L7.44316 30.6175ZM5.4187 30.6175L4.60965 29.8107L5.4187 29.005L6.22896 29.8107L5.4187 30.6175ZM3.39545 30.6175L2.5852 29.8107L3.39545 29.005L4.2045 29.8107L3.39545 30.6175ZM1.371 30.6175L0.561913 29.8107L1.371 29.005L2.18008 29.8107L1.371 30.6175ZM58.7503 30.5166H57.3335V29.1059H58.7503V30.5166ZM56.727 30.5166H55.3102V29.1059H56.727V30.5166ZM54.7026 30.5166H53.2858V29.1059H54.7026V30.5166ZM52.6781 30.5166H51.2614V29.1059H52.6781V30.5166ZM49.9459 30.4158C49.542 30.4158 49.3394 30.2141 49.3394 29.8107C49.3394 29.4084 49.542 29.2067 49.9459 29.2067C50.351 29.2067 50.5536 29.4084 50.5536 29.8107C50.5536 30.2141 50.351 30.4158 49.9459 30.4158ZM47.9226 30.4158C47.5175 30.4158 47.3149 30.2141 47.3149 29.8107C47.3149 29.4084 47.5175 29.2067 47.9226 29.2067C48.3266 29.2067 48.5291 29.4084 48.5291 29.8107C48.5291 30.2141 48.3266 30.4158 47.9226 30.4158ZM45.8982 30.4158C45.493 30.4158 45.2917 30.2141 45.2917 29.8107C45.2917 29.4084 45.493 29.2067 45.8982 29.2067C46.3033 29.2067 46.5059 29.4084 46.5059 29.8107C46.5059 30.2141 46.3033 30.4158 45.8982 30.4158ZM43.8749 30.4158C43.4698 30.4158 43.2672 30.2141 43.2672 29.8107C43.2672 29.4084 43.4698 29.2067 43.8749 29.2067C44.2788 29.2067 44.4814 29.4084 44.4814 29.8107C44.4814 30.2141 44.2788 30.4158 43.8749 30.4158ZM41.8505 30.4158L41.2428 29.8107L41.8505 29.2067L42.457 29.8107L41.8505 30.4158ZM39.826 30.4158L39.2195 29.8107L39.826 29.2067L40.4337 29.8107L39.826 30.4158ZM37.8028 30.4158L37.1951 29.8107L37.8028 29.2067L38.4093 29.8107L37.8028 30.4158ZM35.7783 30.4158L35.1718 29.8107L35.7783 29.2067L36.386 29.8107L35.7783 30.4158ZM33.755 30.4158L33.1473 29.8107L33.755 29.2067L34.3615 29.8107L33.755 30.4158ZM30.719 32.8339H28.6945V30.8192H30.719V32.8339ZM28.6945 32.8339H26.6701V30.8192H28.6945V32.8339ZM26.6701 32.8339H24.6468V30.8192H26.6701V32.8339ZM24.6468 32.8339H22.6224V30.8192H24.6468V32.8339ZM22.6224 32.8339H20.5991V30.8192H22.6224V32.8339ZM20.5991 32.8339H18.5746V30.8192H20.5991V32.8339ZM18.5746 32.8339H16.5502V30.8192H18.5746V32.8339ZM16.5502 32.8339H14.5269V30.8192H16.5502V32.8339ZM14.5269 32.8339H12.5025V30.8192H14.5269V32.8339ZM12.5025 32.8339H10.4792V30.8192H12.5025V32.8339ZM10.4792 32.8339H8.45478V30.8192H10.4792V32.8339ZM8.45478 32.8339H6.43036V30.8192H8.45478V32.8339ZM6.43036 32.8339H4.40708V30.8192H6.43036V32.8339ZM4.40708 32.8339H2.38262V30.8192H4.40708V32.8339ZM2.38262 32.8339H0.359375V30.8192H2.38262V32.8339ZM34.6654 32.7331H32.8435V30.92H34.6654V32.7331ZM32.6409 32.7331H30.8202V30.92H32.6409V32.7331ZM62.0902 32.6322C61.55 32.6322 61.28 32.3644 61.28 31.8265C61.28 31.2887 61.55 31.0209 62.0902 31.0209C62.6304 31.0209 62.8993 31.2887 62.8993 31.8265C62.8993 32.3644 62.6304 32.6322 62.0902 32.6322ZM60.0658 32.6322C59.5268 32.6322 59.2567 32.3644 59.2567 31.8265C59.2567 31.2887 59.5268 31.0209 60.0658 31.0209C60.6059 31.0209 60.876 31.2887 60.876 31.8265C60.876 32.3644 60.6059 32.6322 60.0658 32.6322ZM58.0425 31.3223L58.5477 32.3308H57.5361L58.0425 31.3223ZM56.018 31.3223L56.5244 32.3308H55.5116L56.018 31.3223ZM53.9948 31.3223L54.5 32.3308H53.4884L53.9948 31.3223ZM51.9703 31.3223L52.4767 32.3308H51.4639L51.9703 31.3223ZM49.9459 31.3223L50.4523 32.3308H49.4407L49.9459 31.3223ZM47.9226 31.3223L48.4279 32.3308H47.4162L47.9226 31.3223ZM45.8982 31.3223L46.4046 32.3308H45.3918L45.8982 31.3223ZM43.8749 31.3223L44.3802 32.3308H43.3685L43.8749 31.3223ZM41.8505 31.3223L42.3569 32.3308H41.3441L41.8505 31.3223ZM39.826 31.3223L40.3324 32.3308H39.3208L39.826 31.3223ZM37.8028 31.3223L38.308 32.3308H37.2963L37.8028 31.3223ZM35.7783 31.3223L36.2847 32.3308H35.2719L35.7783 31.3223ZM30.6177 34.749H28.7958V32.9348H30.6177V34.749ZM28.5932 34.749H26.7714V32.9348H28.5932V34.749ZM26.5688 34.749H24.7481V32.9348H26.5688V34.749ZM24.5455 34.749H22.7237V32.9348H24.5455V34.749ZM22.5211 34.749H20.7004V32.9348H22.5211V34.749ZM20.4978 34.749H18.6759V32.9348H20.4978V34.749ZM18.4734 34.749H16.6515V32.9348H18.4734V34.749ZM16.4489 34.749H14.6282V32.9348H16.4489V34.749ZM14.4257 34.749H12.6038V32.9348H14.4257V34.749ZM12.4012 34.749H10.5805V32.9348H12.4012V34.749ZM10.3779 34.749H8.55607V32.9348H10.3779V34.749ZM8.35349 34.749H6.53165V32.9348H8.35349V34.749ZM6.33025 34.749H4.50836V32.9348H6.33025V34.749ZM4.30579 34.749H2.48391V32.9348H4.30579V34.749ZM2.28137 34.749H0.460626V32.9348H2.28137V34.749ZM34.5641 34.6481H32.9448V33.0356H34.5641V34.6481ZM32.5397 34.6481H30.9204V33.0356H32.5397V34.6481ZM62.0902 34.6481C61.55 34.6481 61.28 34.3792 61.28 33.8424C61.28 33.3046 61.55 33.0356 62.0902 33.0356C62.6304 33.0356 62.8993 33.3046 62.8993 33.8424C62.8993 34.3792 62.6304 34.6481 62.0902 34.6481ZM60.0658 34.6481C59.5268 34.6481 59.2567 34.3792 59.2567 33.8424C59.2567 33.3046 59.5268 33.0356 60.0658 33.0356C60.6059 33.0356 60.876 33.3046 60.876 33.8424C60.876 34.3792 60.6059 34.6481 60.0658 34.6481ZM58.0425 33.3382L58.5477 34.3456H57.5361L58.0425 33.3382ZM56.018 33.3382L56.5244 34.3456H55.5116L56.018 33.3382ZM53.9948 33.3382L54.5 34.3456H53.4884L53.9948 33.3382ZM51.9703 33.3382L52.4767 34.3456H51.4639L51.9703 33.3382ZM49.9459 33.3382L50.4523 34.3456H49.4407L49.9459 33.3382ZM47.9226 33.3382L48.4279 34.3456H47.4162L47.9226 33.3382ZM45.8982 33.3382L46.4046 34.3456H45.3918L45.8982 33.3382ZM43.8749 33.3382L44.3802 34.3456H43.3685L43.8749 33.3382ZM41.8505 33.3382L42.3569 34.3456H41.3441L41.8505 33.3382ZM39.826 33.3382L40.3324 34.3456H39.3208L39.826 33.3382ZM37.8028 33.3382L38.308 34.3456H37.2963L37.8028 33.3382ZM35.7783 33.3382L36.2847 34.3456H35.2719L35.7783 33.3382ZM62.0902 34.9507L63.0006 36.7649H61.1799L62.0902 34.9507ZM60.0658 34.9507L60.9773 36.7649H59.1554L60.0658 34.9507ZM30.6177 36.7649H28.7958V34.9507H30.6177V36.7649ZM28.5932 36.7649H26.7714V34.9507H28.5932V36.7649ZM26.5688 36.7649H24.7481V34.9507H26.5688V36.7649ZM24.5455 36.7649H22.7237V34.9507H24.5455V36.7649ZM22.5211 36.7649H20.7004V34.9507H22.5211V36.7649ZM20.4978 36.7649H18.6759V34.9507H20.4978V36.7649ZM18.4734 36.7649H16.6515V34.9507H18.4734V36.7649ZM16.4489 36.7649H14.6282V34.9507H16.4489V36.7649ZM14.4257 36.7649H12.6038V34.9507H14.4257V36.7649ZM12.4012 36.7649H10.5805V34.9507H12.4012V36.7649ZM10.3779 36.7649H8.55607V34.9507H10.3779V36.7649ZM8.35349 36.7649H6.53165V34.9507H8.35349V36.7649ZM6.33025 36.7649H4.50836V34.9507H6.33025V36.7649ZM4.30579 36.7649H2.48391V34.9507H4.30579V36.7649ZM2.28137 36.7649H0.460626V34.9507H2.28137V36.7649ZM34.5641 36.664H32.9448V35.0515H34.5641V36.664ZM32.5397 36.664H30.9204V35.0515H32.5397V36.664ZM58.0425 35.3541L58.5477 36.3614H57.5361L58.0425 35.3541ZM56.018 35.3541L56.5244 36.3614H55.5116L56.018 35.3541ZM53.9948 35.3541L54.5 36.3614H53.4884L53.9948 35.3541ZM51.9703 35.3541L52.4767 36.3614H51.4639L51.9703 35.3541ZM49.9459 35.3541L50.4523 36.3614H49.4407L49.9459 35.3541ZM47.9226 35.3541L48.4279 36.3614H47.4162L47.9226 35.3541ZM45.8982 35.3541L46.4046 36.3614H45.3918L45.8982 35.3541ZM43.8749 35.3541L44.3802 36.3614H43.3685L43.8749 35.3541ZM41.8505 35.3541L42.3569 36.3614H41.3441L41.8505 35.3541ZM39.826 35.3541L40.3324 36.3614H39.3208L39.826 35.3541ZM37.8028 35.3541L38.308 36.3614H37.2963L37.8028 35.3541ZM35.7783 35.3541L36.2847 36.3614H35.2719L35.7783 35.3541ZM62.0902 36.9654L63.0006 38.7796H61.1799L62.0902 36.9654ZM60.0658 36.9654L60.9773 38.7796H59.1554L60.0658 36.9654ZM30.6177 38.7796H28.7958V36.9654H30.6177V38.7796ZM28.5932 38.7796H26.7714V36.9654H28.5932V38.7796ZM26.5688 38.7796H24.7481V36.9654H26.5688V38.7796ZM24.5455 38.7796H22.7237V36.9654H24.5455V38.7796ZM22.5211 38.7796H20.7004V36.9654H22.5211V38.7796ZM20.4978 38.7796H18.6759V36.9654H20.4978V38.7796ZM18.4734 38.7796H16.6515V36.9654H18.4734V38.7796ZM16.4489 38.7796H14.6282V36.9654H16.4489V38.7796ZM14.4257 38.7796H12.6038V36.9654H14.4257V38.7796ZM12.4012 38.7796H10.5805V36.9654H12.4012V38.7796ZM10.3779 38.7796H8.55607V36.9654H10.3779V38.7796ZM8.35349 38.7796H6.53165V36.9654H8.35349V38.7796ZM6.33025 38.7796H4.50836V36.9654H6.33025V38.7796ZM4.30579 38.7796H2.48391V36.9654H4.30579V38.7796ZM2.28137 38.7796H0.460626V36.9654H2.28137V38.7796ZM34.5641 38.6787H32.9448V37.0662H34.5641V38.6787ZM32.5397 38.6787H30.9204V37.0662H32.5397V38.6787ZM58.0425 37.3688L58.5477 38.3762H57.5361L58.0425 37.3688ZM56.018 37.3688L56.5244 38.3762H55.5116L56.018 37.3688ZM53.9948 37.3688L54.5 38.3762H53.4884L53.9948 37.3688ZM51.9703 37.3688L52.4767 38.3762H51.4639L51.9703 37.3688ZM49.9459 37.3688L50.4523 38.3762H49.4407L49.9459 37.3688ZM47.9226 37.3688L48.4279 38.3762H47.4162L47.9226 37.3688ZM45.8982 37.3688L46.4046 38.3762H45.3918L45.8982 37.3688ZM43.8749 37.3688L44.3802 38.3762H43.3685L43.8749 37.3688ZM41.8505 37.3688L42.3569 38.3762H41.3441L41.8505 37.3688ZM39.826 37.3688L40.3324 38.3762H39.3208L39.826 37.3688ZM37.8028 37.3688L38.308 38.3762H37.2963L37.8028 37.3688ZM35.7783 37.3688L36.2847 38.3762H35.2719L35.7783 37.3688ZM62.0902 38.9813L63.0006 40.7955H61.1799L62.0902 38.9813ZM60.0658 38.9813L60.9773 40.7955H59.1554L60.0658 38.9813ZM30.6177 40.7955H28.7958V38.9813H30.6177V40.7955ZM28.5932 40.7955H26.7714V38.9813H28.5932V40.7955ZM26.5688 40.7955H24.7481V38.9813H26.5688V40.7955ZM24.5455 40.7955H22.7237V38.9813H24.5455V40.7955ZM22.5211 40.7955H20.7004V38.9813H22.5211V40.7955ZM20.4978 40.7955H18.6759V38.9813H20.4978V40.7955ZM18.4734 40.7955H16.6515V38.9813H18.4734V40.7955ZM16.4489 40.7955H14.6282V38.9813H16.4489V40.7955ZM14.4257 40.7955H12.6038V38.9813H14.4257V40.7955ZM12.4012 40.7955H10.5805V38.9813H12.4012V40.7955ZM10.3779 40.7955H8.55607V38.9813H10.3779V40.7955ZM8.35349 40.7955H6.53165V38.9813H8.35349V40.7955ZM6.33025 40.7955H4.50836V38.9813H6.33025V40.7955ZM4.30579 40.7955H2.48391V38.9813H4.30579V40.7955ZM2.28137 40.7955H0.460626V38.9813H2.28137V40.7955ZM34.5641 40.6946H32.9448V39.0821H34.5641V40.6946ZM32.5397 40.6946H30.9204V39.0821H32.5397V40.6946ZM58.0425 39.3847L58.5477 40.3921H57.5361L58.0425 39.3847ZM56.018 39.3847L56.5244 40.3921H55.5116L56.018 39.3847ZM53.9948 39.3847L54.5 40.3921H53.4884L53.9948 39.3847ZM51.9703 39.3847L52.4767 40.3921H51.4639L51.9703 39.3847ZM49.9459 39.3847L50.4523 40.3921H49.4407L49.9459 39.3847ZM47.9226 39.3847L48.4279 40.3921H47.4162L47.9226 39.3847ZM45.8982 39.3847L46.4046 40.3921H45.3918L45.8982 39.3847ZM43.8749 39.3847L44.3802 40.3921H43.3685L43.8749 39.3847ZM41.8505 39.3847L42.3569 40.3921H41.3441L41.8505 39.3847ZM39.826 39.3847L40.3324 40.2912H39.4221L39.826 39.3847ZM37.8028 39.4856L38.2067 40.2912H37.3976L37.8028 39.4856ZM35.7783 39.4856L36.1834 40.2912H35.3732L35.7783 39.4856ZM62.0902 40.9972L63.0006 42.8102H61.1799L62.0902 40.9972ZM60.0658 40.9972L60.9773 42.8102H59.1554L60.0658 40.9972ZM30.6177 42.8102H28.7958V40.9972H30.6177V42.8102ZM28.5932 42.8102H26.7714V40.9972H28.5932V42.8102ZM26.5688 42.8102H24.7481V40.9972H26.5688V42.8102ZM24.5455 42.8102H22.7237V40.9972H24.5455V42.8102ZM22.5211 42.8102H20.7004V40.9972H22.5211V42.8102ZM20.4978 42.8102H18.6759V40.9972H20.4978V42.8102ZM18.4734 42.8102H16.6515V40.9972H18.4734V42.8102ZM16.4489 42.8102H14.6282V40.9972H16.4489V42.8102ZM14.4257 42.8102H12.6038V40.9972H14.4257V42.8102ZM12.4012 42.8102H10.5805V40.9972H12.4012V42.8102ZM10.3779 42.8102H8.55607V40.9972H10.3779V42.8102ZM8.35349 42.8102H6.53165V40.9972H8.35349V42.8102ZM6.33025 42.8102H4.50836V40.9972H6.33025V42.8102ZM4.30579 42.8102H2.48391V40.9972H4.30579V42.8102ZM2.28137 42.8102H0.460626V40.9972H2.28137V42.8102ZM34.5641 42.7094H32.9448V41.098H34.5641V42.7094ZM32.5397 42.7094H30.9204V41.098H32.5397V42.7094ZM58.0425 41.5003L58.4464 42.3071H57.6374L58.0425 41.5003ZM56.018 41.5003L56.4232 42.3071H55.6129L56.018 41.5003ZM53.9948 41.5003L54.3987 42.3071H53.5896L53.9948 41.5003ZM51.9703 41.5003L52.3754 42.3071H51.5652L51.9703 41.5003ZM49.9459 41.5003L50.351 42.3071H49.5419L49.9459 41.5003ZM47.9226 41.5003L48.3266 42.3071H47.5175L47.9226 41.5003ZM45.8982 41.5003L46.3033 42.3071H45.4931L45.8982 41.5003ZM43.8749 41.5003L44.2789 42.3071H43.4698L43.8749 41.5003ZM41.8505 41.5003L42.2556 42.3071H41.4454L41.8505 41.5003ZM39.826 41.5003L40.2312 42.3071H39.4221L39.826 41.5003ZM37.8028 41.5003L38.2067 42.3071H37.3976L37.8028 41.5003ZM35.7783 41.5003L36.1834 42.3071H35.3732L35.7783 41.5003ZM62.0902 43.0119L63.0006 44.8261H61.1799L62.0902 43.0119ZM60.0658 43.0119L60.9773 44.8261H59.1554L60.0658 43.0119ZM30.6177 44.8261H28.7958V43.0119H30.6177V44.8261ZM28.5932 44.8261H26.7714V43.0119H28.5932V44.8261ZM26.5688 44.8261H24.7481V43.0119H26.5688V44.8261ZM22.5211 44.8261H20.7004V43.0119H22.5211V44.8261ZM20.4978 44.8261H18.6759V43.0119H20.4978V44.8261ZM18.4734 44.8261H16.6515V43.0119H18.4734V44.8261ZM16.4489 44.8261H14.6282V43.0119H16.4489V44.8261ZM14.4257 44.8261H12.6038V43.0119H14.4257V44.8261ZM12.4012 44.8261H10.5805V43.0119H12.4012V44.8261ZM10.3779 44.8261H8.55607V43.0119H10.3779V44.8261ZM8.35349 44.8261H6.53165V43.0119H8.35349V44.8261ZM6.33025 44.8261H4.50836V43.0119H6.33025V44.8261ZM4.30579 44.8261H2.48391V43.0119H4.30579V44.8261ZM2.28137 44.8261H0.460626V43.0119H2.28137V44.8261ZM34.5641 44.7252H32.9448V43.1128H34.5641V44.7252ZM32.5397 44.7252H30.9204V43.1128H32.5397V44.7252ZM58.0425 43.5162L58.4464 44.3218H57.6374L58.0425 43.5162ZM56.018 43.5162L56.4232 44.3218H55.6129L56.018 43.5162ZM53.9948 43.5162L54.3987 44.3218H53.5896L53.9948 43.5162ZM51.9703 43.5162L52.3754 44.3218H51.5652L51.9703 43.5162ZM49.9459 43.5162L50.351 44.3218H49.5419L49.9459 43.5162ZM47.9226 43.5162L48.3266 44.3218H47.5175L47.9226 43.5162ZM45.8982 43.5162L46.3033 44.3218H45.4931L45.8982 43.5162ZM43.8749 43.5162L44.2789 44.3218H43.4698L43.8749 43.5162ZM41.8505 43.5162L42.2556 44.3218H41.4454L41.8505 43.5162ZM39.826 43.5162L40.2312 44.3218H39.4221L39.826 43.5162ZM37.8028 43.5162L38.2067 44.3218H37.3976L37.8028 43.5162ZM35.7783 43.5162L36.1834 44.3218H35.3732L35.7783 43.5162ZM62.0902 46.842L61.1799 45.9343L62.0902 45.0278L63.0006 45.9343L62.0902 46.842ZM60.0658 46.842L59.1554 45.9343L60.0658 45.0278L60.9773 45.9343L60.0658 46.842ZM30.5164 46.7411H28.8971V45.1287H30.5164V46.7411ZM28.492 46.7411H26.8727V45.1287H28.492V46.7411ZM22.4198 46.7411H20.8005V45.1287H22.4198V46.7411ZM20.3965 46.7411H18.7772V45.1287H20.3965V46.7411ZM18.3721 46.7411H16.7528V45.1287H18.3721V46.7411ZM16.3488 46.7411H14.7295V45.1287H16.3488V46.7411ZM14.3244 46.7411H12.7051V45.1287H14.3244V46.7411ZM12.2999 46.7411H10.6806V45.1287H12.2999V46.7411ZM10.2767 46.7411H8.65735V45.1287H10.2767V46.7411ZM8.25224 46.7411H6.6329V45.1287H8.25224V46.7411ZM6.22896 46.7411H4.60965V45.1287H6.22896V46.7411ZM4.2045 46.7411H2.5852V45.1287H4.2045V46.7411ZM2.18008 46.7411H0.561913V45.1287H2.18008V46.7411ZM34.5641 46.7411H32.9448V45.1287H34.5641V46.7411ZM32.5397 46.6403H31.0216V45.1287H32.5397V46.6403ZM58.0425 45.4312L58.5477 46.4386H57.5361L58.0425 45.4312ZM56.018 45.4312L56.5244 46.4386H55.5116L56.018 45.4312ZM53.9948 45.4312L54.5 46.4386H53.4884L53.9948 45.4312ZM51.9703 45.4312L52.4767 46.4386H51.4639L51.9703 45.4312ZM49.9459 45.4312L50.4523 46.4386H49.4407L49.9459 45.4312ZM47.9226 45.4312L48.4279 46.4386H47.4162L47.9226 45.4312ZM45.8982 45.4312L46.4046 46.4386H45.3918L45.8982 45.4312ZM43.8749 45.4312L44.3802 46.4386H43.3685L43.8749 45.4312ZM41.8505 45.4312L42.3569 46.4386H41.3441L41.8505 45.4312ZM39.826 45.4312L40.3324 46.4386H39.3208L39.826 45.4312ZM37.8028 45.4312L38.308 46.4386H37.2963L37.8028 45.4312ZM35.7783 45.4312L36.2847 46.4386H35.2719L35.7783 45.4312ZM62.0902 48.7559L61.28 47.9502L62.0902 47.1434L62.8993 47.9502L62.0902 48.7559ZM60.0658 48.7559L59.2567 47.9502L60.0658 47.1434L60.876 47.9502L60.0658 48.7559ZM30.5164 48.7559H28.8971V47.1434H30.5164V48.7559ZM28.492 48.7559H26.8727V47.1434H28.492V48.7559ZM22.4198 48.7559H20.8005V47.1434H22.4198V48.7559ZM20.3965 48.7559H18.7772V47.1434H20.3965V48.7559ZM18.3721 48.7559H16.7528V47.1434H18.3721V48.7559ZM16.3488 48.7559H14.7295V47.1434H16.3488V48.7559ZM14.3244 48.7559H12.7051V47.1434H14.3244V48.7559ZM12.2999 48.7559H10.6806V47.1434H12.2999V48.7559ZM10.2767 48.7559H8.65735V47.1434H10.2767V48.7559ZM8.25224 48.7559H6.6329V47.1434H8.25224V48.7559ZM6.22896 48.7559H4.60965V47.1434H6.22896V48.7559ZM4.2045 48.7559H2.5852V47.1434H4.2045V48.7559ZM2.18008 48.7559H0.561913V47.1434H2.18008V48.7559ZM34.4628 48.655H33.0461V47.2442H34.4628V48.655ZM32.4384 48.655H31.0216V47.2442H32.4384V48.655ZM58.0425 47.5468L58.4464 48.3536H57.6374L58.0425 47.5468ZM56.018 47.5468L56.4232 48.3536H55.6129L56.018 47.5468ZM53.9948 47.5468L54.3987 48.3536H53.5896L53.9948 47.5468ZM51.9703 47.5468L52.3754 48.3536H51.5652L51.9703 47.5468ZM49.9459 47.5468L50.351 48.3536H49.5419L49.9459 47.5468ZM47.9226 47.5468L48.3266 48.3536H47.5175L47.9226 47.5468ZM45.8982 47.5468L46.3033 48.3536H45.4931L45.8982 47.5468ZM43.8749 47.5468L44.2789 48.3536H43.4698L43.8749 47.5468ZM41.8505 47.5468L42.2556 48.3536H41.4454L41.8505 47.5468ZM39.826 47.5468L40.2312 48.3536H39.4221L39.826 47.5468ZM37.8028 47.5468L38.2067 48.3536H37.3976L37.8028 47.5468ZM35.7783 47.5468L36.1834 48.3536H35.3732L35.7783 47.5468ZM62.0902 50.7718L61.28 49.9649L62.0902 49.1593L62.8993 49.9649L62.0902 50.7718ZM60.0658 50.7718L59.2567 49.9649L60.0658 49.1593L60.876 49.9649L60.0658 50.7718ZM30.5164 50.7718H28.8971V49.1593H30.5164V50.7718ZM22.4198 50.7718H20.8005V49.1593H22.4198V50.7718ZM20.3965 50.7718H18.7772V49.1593H20.3965V50.7718ZM18.3721 50.7718H16.7528V49.1593H18.3721V50.7718ZM16.3488 50.7718H14.7295V49.1593H16.3488V50.7718ZM14.3244 50.7718H12.7051V49.1593H14.3244V50.7718ZM12.2999 50.7718H10.6806V49.1593H12.2999V50.7718ZM10.2767 50.7718H8.65735V49.1593H10.2767V50.7718ZM8.25224 50.7718H6.6329V49.1593H8.25224V50.7718ZM6.22896 50.7718H4.60965V49.1593H6.22896V50.7718ZM4.2045 50.7718H2.5852V49.1593H4.2045V50.7718ZM2.18008 50.7718H0.561913V49.1593H2.18008V50.7718ZM34.4628 50.6709H33.0461V49.2601H34.4628V50.6709ZM32.4384 50.6709H31.0216V49.2601H32.4384V50.6709ZM58.0425 49.5627L58.4464 50.3683H57.6374L58.0425 49.5627ZM56.018 49.5627L56.4232 50.3683H55.6129L56.018 49.5627ZM53.9948 49.5627L54.3987 50.3683H53.5896L53.9948 49.5627ZM51.9703 49.5627L52.3754 50.3683H51.5652L51.9703 49.5627ZM49.9459 49.5627L50.351 50.3683H49.5419L49.9459 49.5627ZM47.9226 49.5627L48.3266 50.3683H47.5175L47.9226 49.5627ZM45.8982 49.5627L46.3033 50.3683H45.4931L45.8982 49.5627ZM43.8749 49.5627L44.2789 50.3683H43.4698L43.8749 49.5627ZM41.8505 49.5627L42.2556 50.3683H41.4454L41.8505 49.5627ZM39.826 49.5627L40.2312 50.3683H39.4221L39.826 49.5627ZM37.8028 49.5627L38.2067 50.3683H37.3976L37.8028 49.5627ZM35.7783 49.5627L36.1834 50.3683H35.3732L35.7783 49.5627ZM62.0902 52.7865L61.28 51.9808L62.0902 51.1752L62.8993 51.9808L62.0902 52.7865ZM60.0658 52.7865L59.2567 51.9808L60.0658 51.1752L60.876 51.9808L60.0658 52.7865ZM30.5164 52.7865H28.8971V51.1752H30.5164V52.7865ZM22.4198 52.7865H20.8005V51.1752H22.4198V52.7865ZM20.3965 52.7865H18.7772V51.1752H20.3965V52.7865ZM18.3721 52.7865H16.7528V51.1752H18.3721V52.7865ZM16.3488 52.7865H14.7295V51.1752H16.3488V52.7865ZM14.3244 52.7865H12.7051V51.1752H14.3244V52.7865ZM12.2999 52.7865H10.6806V51.1752H12.2999V52.7865ZM10.2767 52.7865H8.65735V51.1752H10.2767V52.7865ZM8.25224 52.7865H6.6329V51.1752H8.25224V52.7865ZM6.22896 52.7865H4.60965V51.1752H6.22896V52.7865ZM4.2045 52.7865H2.5852V51.1752H4.2045V52.7865ZM2.18008 52.7865H0.561913V51.1752H2.18008V52.7865ZM34.4628 52.6868H33.0461V51.276H34.4628V52.6868ZM32.4384 52.6868H31.0216V51.276H32.4384V52.6868ZM58.0425 51.5774L58.4464 52.3842H57.6374L58.0425 51.5774ZM56.018 51.5774L56.4232 52.3842H55.6129L56.018 51.5774ZM53.9948 51.5774L54.3987 52.3842H53.5896L53.9948 51.5774ZM51.9703 51.5774L52.3754 52.3842H51.5652L51.9703 51.5774ZM49.9459 51.5774L50.351 52.3842H49.5419L49.9459 51.5774ZM47.9226 51.5774L48.3266 52.3842H47.5175L47.9226 51.5774ZM45.8982 51.5774L46.3033 52.3842H45.4931L45.8982 51.5774ZM43.8749 51.5774L44.2789 52.3842H43.4698L43.8749 51.5774ZM41.8505 51.5774L42.2556 52.3842H41.4454L41.8505 51.5774ZM39.826 51.5774L40.2312 52.3842H39.4221L39.826 51.5774ZM37.8028 51.5774L38.2067 52.3842H37.3976L37.8028 51.5774ZM35.7783 51.5774L36.1834 52.3842H35.3732L35.7783 51.5774ZM62.0902 54.8024L61.28 53.9967L62.0902 53.1899L62.8993 53.9967L62.0902 54.8024ZM60.0658 54.8024L59.2567 53.9967L60.0658 53.1899L60.876 53.9967L60.0658 54.8024ZM22.4198 54.8024H20.8005V53.1899H22.4198V54.8024ZM20.3965 54.8024H18.7772V53.1899H20.3965V54.8024ZM18.3721 54.8024H16.7528V53.1899H18.3721V54.8024ZM16.3488 54.8024H14.7295V53.1899H16.3488V54.8024ZM14.3244 54.8024H12.7051V53.1899H14.3244V54.8024ZM12.2999 54.8024H10.6806V53.1899H12.2999V54.8024ZM10.2767 54.8024H8.65735V53.1899H10.2767V54.8024ZM8.25224 54.8024H6.6329V53.1899H8.25224V54.8024ZM6.22896 54.8024H4.60965V53.1899H6.22896V54.8024ZM4.2045 54.8024H2.5852V53.1899H4.2045V54.8024ZM2.18008 54.8024H0.561913V53.1899H2.18008V54.8024ZM34.4628 54.7015H33.0461V53.2908H34.4628V54.7015ZM32.4384 54.7015H31.0216V53.2908H32.4384V54.7015ZM58.0425 53.5933L58.4464 54.399H57.6374L58.0425 53.5933ZM56.018 53.5933L56.4232 54.399H55.6129L56.018 53.5933ZM53.9948 53.5933L54.3987 54.399H53.5896L53.9948 53.5933ZM51.9703 53.5933L52.3754 54.399H51.5652L51.9703 53.5933ZM49.9459 53.5933L50.351 54.399H49.5419L49.9459 53.5933ZM47.9226 53.5933L48.3266 54.399H47.5175L47.9226 53.5933ZM45.8982 53.5933L46.3033 54.399H45.4931L45.8982 53.5933ZM43.8749 53.5933L44.2789 54.399H43.4698L43.8749 53.5933ZM41.8505 53.5933L42.2556 54.399H41.4454L41.8505 53.5933ZM39.826 53.5933L40.2312 54.399H39.4221L39.826 53.5933ZM37.8028 53.5933L38.2067 54.399H37.3976L37.8028 53.5933ZM35.7783 53.5933L36.1834 54.399H35.3732L35.7783 53.5933ZM62.0902 56.8183L61.28 56.0115L62.0902 55.2058L62.8993 56.0115L62.0902 56.8183ZM60.0658 56.8183L59.2567 56.0115L60.0658 55.2058L60.876 56.0115L60.0658 56.8183ZM22.4198 56.8183H20.8005V55.2058H22.4198V56.8183ZM20.3965 56.8183H18.7772V55.2058H20.3965V56.8183ZM18.3721 56.8183H16.7528V55.2058H18.3721V56.8183ZM16.3488 56.8183H14.7295V55.2058H16.3488V56.8183ZM14.3244 56.8183H12.7051V55.2058H14.3244V56.8183ZM12.2999 56.8183H10.6806V55.2058H12.2999V56.8183ZM10.2767 56.8183H8.65735V55.2058H10.2767V56.8183ZM8.25224 56.8183H6.6329V55.2058H8.25224V56.8183ZM6.22896 56.8183H4.60965V55.2058H6.22896V56.8183ZM4.2045 56.8183H2.5852V55.2058H4.2045V56.8183ZM2.18008 56.8183H0.561913V55.2058H2.18008V56.8183ZM34.4628 56.7174H33.0461V55.3066H34.4628V56.7174ZM58.0425 55.6092L58.4464 56.4149H57.6374L58.0425 55.6092ZM56.018 55.6092L56.4232 56.4149H55.6129L56.018 55.6092ZM53.9948 55.6092L54.3987 56.4149H53.5896L53.9948 55.6092ZM51.9703 55.6092L52.3754 56.4149H51.5652L51.9703 55.6092ZM49.9459 55.6092L50.351 56.4149H49.5419L49.9459 55.6092ZM47.9226 55.6092L48.3266 56.4149H47.5175L47.9226 55.6092ZM45.8982 55.6092L46.3033 56.4149H45.4931L45.8982 55.6092ZM43.8749 55.6092L44.2789 56.4149H43.4698L43.8749 55.6092ZM41.8505 55.6092L42.2556 56.4149H41.4454L41.8505 55.6092ZM39.826 55.6092L40.2312 56.4149H39.4221L39.826 55.6092ZM37.8028 55.6092L38.2067 56.4149H37.3976L37.8028 55.6092ZM35.7783 55.6092L36.1834 56.4149H35.3732L35.7783 55.6092ZM62.0902 58.833L61.28 58.0273L62.0902 57.2205L62.8993 58.0273L62.0902 58.833ZM60.0658 58.833L59.2567 58.0273L60.0658 57.2205L60.876 58.0273L60.0658 58.833ZM22.4198 58.833H20.8005V57.2205H22.4198V58.833ZM20.3965 58.833H18.7772V57.2205H20.3965V58.833ZM18.3721 58.833H16.7528V57.2205H18.3721V58.833ZM16.3488 58.7322H14.8308V57.2205H16.3488V58.7322ZM14.2231 58.7322H12.8063V57.3214H14.2231V58.7322ZM12.1987 58.7322H10.7819V57.3214H12.1987V58.7322ZM10.1754 58.7322H8.75864V57.3214H10.1754V58.7322ZM8.15095 58.7322H6.73418V57.3214H8.15095V58.7322ZM6.12767 58.7322H4.7109V57.3214H6.12767V58.7322ZM4.10322 58.7322H2.68648V57.3214H4.10322V58.7322ZM2.0788 58.7322H0.662027V57.3214H2.0788V58.7322ZM34.4628 58.7322H33.0461V57.3214H34.4628V58.7322ZM58.0425 57.6239L58.4464 58.4307H57.6374L58.0425 57.6239ZM56.018 57.6239L56.4232 58.4307H55.6129L56.018 57.6239ZM53.9948 57.6239L54.3987 58.4307H53.5896L53.9948 57.6239ZM51.9703 57.6239L52.3754 58.4307H51.5652L51.9703 57.6239ZM49.9459 57.6239L50.351 58.4307H49.5419L49.9459 57.6239ZM47.9226 57.6239L48.3266 58.4307H47.5175L47.9226 57.6239ZM45.8982 57.6239L46.3033 58.4307H45.4931L45.8982 57.6239ZM43.8749 57.6239L44.2789 58.4307H43.4698L43.8749 57.6239ZM41.8505 57.6239L42.2556 58.4307H41.4454L41.8505 57.6239ZM39.826 57.6239L40.2312 58.4307H39.4221L39.826 57.6239ZM37.8028 57.6239L38.2067 58.4307H37.3976L37.8028 57.6239ZM35.7783 57.6239L36.1834 58.4307H35.3732L35.7783 57.6239ZM62.0902 60.748L61.3813 60.0421L62.0902 59.3373L62.798 60.0421L62.0902 60.748ZM60.0658 60.748L59.358 60.0421L60.0658 59.3373L60.7747 60.0421L60.0658 60.748ZM22.3185 60.748H20.9018V59.3373H22.3185V60.748ZM20.2953 60.748H18.8785V59.3373H20.2953V60.748ZM18.2708 60.748H16.854V59.3373H18.2708V60.748ZM16.2475 60.748H14.8308V59.3373H16.2475V60.748ZM14.2231 60.748H12.8063V59.3373H14.2231V60.748ZM12.1987 60.748H10.7819V59.3373H12.1987V60.748ZM10.1754 60.748H8.75864V59.3373H10.1754V60.748ZM8.15095 60.748H6.73418V59.3373H8.15095V60.748ZM6.12767 60.748H4.7109V59.3373H6.12767V60.748ZM4.10322 60.748H2.68648V59.3373H4.10322V60.748ZM2.0788 60.748H0.662027V59.3373H2.0788V60.748ZM58.0425 59.7407L58.3452 60.3446H57.7387L58.0425 59.7407ZM56.018 59.7407L56.3219 60.3446H55.7142L56.018 59.7407ZM53.9948 59.7407L54.2974 60.3446H53.6909L53.9948 59.7407ZM51.9703 59.7407L52.2742 60.3446H51.6665L51.9703 59.7407ZM49.9459 59.7407L50.2497 60.3446H49.6432L49.9459 59.7407ZM47.9226 59.7407L48.2253 60.3446H47.6188L47.9226 59.7407ZM45.8982 59.7407L46.202 60.3446H45.5943L45.8982 59.7407ZM43.8749 59.7407L44.1776 60.3446H43.5711L43.8749 59.7407ZM41.8505 59.7407L42.1543 60.3446H41.5466L41.8505 59.7407ZM39.826 59.7407L40.1299 60.3446H39.5234L39.826 59.7407ZM37.8028 59.7407L38.1066 60.3446H37.4989L37.8028 59.7407ZM35.7783 59.7407L36.0821 60.3446H35.4745L35.7783 59.7407ZM62.0902 62.7639L61.3813 62.058L62.0902 61.3532L62.798 62.058L62.0902 62.7639ZM60.0658 62.7639L59.358 62.058L60.0658 61.3532L60.7747 62.058L60.0658 62.7639ZM22.3185 62.7639H20.9018V61.3532H22.3185V62.7639ZM20.2953 62.7639H18.8785V61.3532H20.2953V62.7639ZM18.2708 62.7639H16.854V61.3532H18.2708V62.7639ZM16.2475 62.7639H14.8308V61.3532H16.2475V62.7639ZM14.2231 62.7639H12.8063V61.3532H14.2231V62.7639ZM12.1987 62.7639H10.7819V61.3532H12.1987V62.7639ZM10.1754 62.7639H8.75864V61.3532H10.1754V62.7639ZM8.15095 62.7639H6.73418V61.3532H8.15095V62.7639ZM6.12767 62.7639H4.7109V61.3532H6.12767V62.7639ZM4.10322 62.7639H2.68648V61.3532H4.10322V62.7639ZM2.0788 62.7639H0.662027V61.3532H2.0788V62.7639ZM58.0425 61.7554L58.3452 62.3605H57.7387L58.0425 61.7554ZM56.018 61.7554L56.3219 62.3605H55.7142L56.018 61.7554ZM53.9948 61.7554L54.2974 62.3605H53.6909L53.9948 61.7554ZM51.9703 61.7554L52.2742 62.3605H51.6665L51.9703 61.7554ZM49.9459 61.7554L50.2497 62.3605H49.6432L49.9459 61.7554ZM47.9226 61.7554L48.2253 62.3605H47.6188L47.9226 61.7554ZM45.8982 61.7554L46.202 62.3605H45.5943L45.8982 61.7554ZM43.8749 61.7554L44.1776 62.3605H43.5711L43.8749 61.7554ZM41.8505 61.7554L42.1543 62.3605H41.5466L41.8505 61.7554ZM39.826 61.7554L40.1299 62.3605H39.5234L39.826 61.7554ZM37.8028 61.7554L38.1066 62.3605H37.4989L37.8028 61.7554ZM62.0902 64.7787L61.3813 64.0739L62.0902 63.3679L62.798 64.0739L62.0902 64.7787ZM60.0658 64.7787L59.358 64.0739L60.0658 63.3679L60.7747 64.0739L60.0658 64.7787ZM22.3185 64.7787H20.9018V63.3679H22.3185V64.7787ZM20.2953 64.7787H18.8785V63.3679H20.2953V64.7787ZM18.2708 64.7787H16.854V63.3679H18.2708V64.7787ZM16.2475 64.7787H14.8308V63.3679H16.2475V64.7787ZM14.2231 64.7787H12.8063V63.3679H14.2231V64.7787ZM12.1987 64.7787H10.7819V63.3679H12.1987V64.7787ZM10.1754 64.7787H8.75864V63.3679H10.1754V64.7787ZM8.15095 64.7787H6.73418V63.3679H8.15095V64.7787ZM6.12767 64.7787H4.7109V63.3679H6.12767V64.7787ZM4.10322 64.7787H2.68648V63.3679H4.10322V64.7787ZM2.0788 64.7787H0.662027V63.3679H2.0788V64.7787ZM58.0425 63.7713L58.3452 64.3753H57.7387L58.0425 63.7713ZM56.018 63.7713L56.3219 64.3753H55.7142L56.018 63.7713ZM53.9948 63.7713L54.2974 64.3753H53.6909L53.9948 63.7713ZM51.9703 63.7713L52.2742 64.3753H51.6665L51.9703 63.7713ZM49.9459 63.7713L50.2497 64.3753H49.6432L49.9459 63.7713ZM47.9226 63.7713L48.2253 64.3753H47.6188L47.9226 63.7713ZM45.8982 63.7713L46.202 64.3753H45.5943L45.8982 63.7713ZM43.8749 63.7713L44.1776 64.3753H43.5711L43.8749 63.7713ZM41.8505 63.7713L42.1543 64.3753H41.5466L41.8505 63.7713ZM39.826 63.7713L40.1299 64.3753H39.5234L39.826 63.7713ZM37.8028 63.7713L38.1066 64.3753H37.4989L37.8028 63.7713ZM62.0902 66.7946L61.3813 66.0886L62.0902 65.3838L62.798 66.0886L62.0902 66.7946ZM60.0658 66.7946L59.358 66.0886L60.0658 65.3838L60.7747 66.0886L60.0658 66.7946ZM22.3185 66.7946H20.9018V65.3838H22.3185V66.7946ZM20.2953 66.7946H18.8785V65.3838H20.2953V66.7946ZM18.2708 66.7946H16.854V65.3838H18.2708V66.7946ZM16.2475 66.7946H14.8308V65.3838H16.2475V66.7946ZM14.2231 66.7946H12.8063V65.3838H14.2231V66.7946ZM12.1987 66.7946H10.7819V65.3838H12.1987V66.7946ZM10.1754 66.7946H8.75864V65.3838H10.1754V66.7946ZM8.15095 66.7946H6.73418V65.3838H8.15095V66.7946ZM6.12767 66.7946H4.7109V65.3838H6.12767V66.7946ZM4.10322 66.7946H2.68648V65.3838H4.10322V66.7946ZM2.0788 66.7946H0.662027V65.3838H2.0788V66.7946ZM58.0425 65.786L58.3452 66.3911H57.7387L58.0425 65.786ZM56.018 65.786L56.3219 66.3911H55.7142L56.018 65.786ZM53.9948 65.786L54.2974 66.3911H53.6909L53.9948 65.786ZM51.9703 65.786L52.2742 66.3911H51.6665L51.9703 65.786ZM49.9459 65.786L50.2497 66.3911H49.6432L49.9459 65.786ZM47.9226 65.786L48.2253 66.3911H47.6188L47.9226 65.786ZM45.8982 65.786L46.202 66.3911H45.5943L45.8982 65.786ZM43.8749 65.786L44.1776 66.3911H43.5711L43.8749 65.786ZM41.8505 65.786L42.1543 66.3911H41.5466L41.8505 65.786ZM39.826 65.786L40.1299 66.3911H39.5234L39.826 65.786ZM62.0902 68.8093L61.3813 68.1045L62.0902 67.3985L62.798 68.1045L62.0902 68.8093ZM60.0658 68.8093L59.358 68.1045L60.0658 67.3985L60.7747 68.1045L60.0658 68.8093ZM22.3185 68.8093H20.9018V67.3985H22.3185V68.8093ZM20.2953 68.8093H18.8785V67.3985H20.2953V68.8093ZM18.2708 68.8093H16.854V67.3985H18.2708V68.8093ZM16.2475 68.8093H14.8308V67.3985H16.2475V68.8093ZM14.2231 68.8093H12.8063V67.3985H14.2231V68.8093ZM12.1987 68.8093H10.7819V67.3985H12.1987V68.8093ZM10.1754 68.8093H8.75864V67.3985H10.1754V68.8093ZM8.15095 68.8093H6.73418V67.3985H8.15095V68.8093ZM6.12767 68.8093H4.7109V67.3985H6.12767V68.8093ZM4.10322 68.8093H2.68648V67.3985H4.10322V68.8093ZM2.0788 68.8093H0.662027V67.3985H2.0788V68.8093ZM58.0425 67.8019L58.3452 68.407H57.7387L58.0425 67.8019ZM56.018 67.8019L56.3219 68.407H55.7142L56.018 67.8019ZM53.9948 67.8019L54.2974 68.407H53.6909L53.9948 67.8019ZM51.9703 67.8019L52.2742 68.407H51.6665L51.9703 67.8019ZM49.9459 67.8019L50.2497 68.407H49.6432L49.9459 67.8019ZM47.9226 67.8019L48.2253 68.407H47.6188L47.9226 67.8019ZM45.8982 67.8019L46.202 68.407H45.5943L45.8982 67.8019ZM43.8749 67.8019L44.1776 68.407H43.5711L43.8749 67.8019ZM41.8505 67.8019L42.1543 68.407H41.5466L41.8505 67.8019Z" fill="white"/>
</svg>
