<svg width="121" height="100" viewBox="0 0 121 100" fill="none" xmlns="http://www.w3.org/2000/svg">
<circle cx="60.5" cy="94.5" r="60.5" fill="black"/>
<circle cx="60.4996" cy="94.4996" r="46.0796" fill="black" stroke="white"/>
<path d="M52.8715 61.2493C47.6239 70.8741 53.1631 86.6239 56.3714 96.2488C66.1702 92.0489 67.4551 81.0823 66.8726 76.1241C52.8728 75.4241 51.7053 66.4992 52.8715 61.2493Z" fill="white" stroke="white" stroke-width="2.9"/>
<path d="M77.6901 55.6747C81.3742 63.4523 87.0833 80.527 80.4525 86.6044C74.058 92.4668 63.0343 96.4446 57.8002 97.8547C73.2687 83.4135 67.5596 77.1023 62.7721 75.7519C52.1646 73.5814 52.0908 64.7186 53.3801 60.5585C45.8661 75.7519 52.4592 91.8498 56.6942 98H54.4848L45.0927 94.7439L36.2527 62.1863L42.3302 38.8535L65.5345 28.001L63.8781 53.5043L77.6901 55.6747Z" fill="#FFD23C"/>
<path d="M93.906 60.6038C93.4574 80.6194 76.2265 91.9254 67.6661 95.0763C85.5319 78.6178 81.8092 63.0129 77.714 57.2676C77.268 63.4947 71.945 63.9397 69.3399 63.3837C55.4958 59.3805 60.9658 38.3639 65.4309 28.356C23.8956 53.7094 41.7979 85.2528 55.9418 97.8562C47.4552 98.7446 38.6348 95.2618 35.2854 93.4068C21.4398 84.9563 23.1886 74.3184 25.7937 70.0555C25.4214 72.4649 25.6819 76.9499 29.7016 75.6156C33.7213 74.2813 32.1213 71.353 30.8187 70.0555C17.4199 55.822 34.9129 38.1784 45.3341 31.1359C59.6252 19.1263 53.8945 5.37459 49.2423 0C77.8268 1.33431 77.1578 22.7959 73.2488 33.3598C68.3351 43.1454 73.4351 47.4451 76.599 48.3716C85.0833 46.1477 83.483 36.6957 81.6229 32.2478C92.7884 37.5853 94.4622 53.3757 93.906 60.6038Z" fill="#EB5576"/>
<circle cx="60.5" cy="94.5" r="24" fill="black" stroke="white"/>
</svg>
