<svg width="52" height="56" viewBox="0 0 52 56" fill="none" xmlns="http://www.w3.org/2000/svg">
<path d="M43.6979 33.5128C42.3789 32.9401 40.9533 32.6379 39.506 32.6296H39.5015C33.5427 32.6296 28.6979 37.4744 28.6979 43.4332C28.6979 49.392 33.5427 54.2368 39.5015 54.2368C45.4603 54.2368 50.305 49.392 50.305 43.4332V14.5007V14.5001C50.3046 13.8226 50.0957 13.1615 49.7069 12.6066C49.3181 12.0517 48.768 11.6298 48.1313 11.3981L48.1311 11.398L20.6313 1.39808C20.1324 1.21651 19.5971 1.15785 19.0708 1.22706C18.5444 1.29628 18.0425 1.49132 17.6075 1.79567C17.1726 2.10003 16.8173 2.50473 16.572 2.9755L17.2746 3.34174L16.572 2.9755C16.3266 3.44627 16.1983 3.96925 16.1979 4.50013V4.50069V23.5128C14.8789 22.9401 13.4533 22.6379 12.006 22.6296H12.0015C6.04266 22.6296 1.19789 27.4744 1.19789 33.4332C1.19789 39.392 6.04266 44.2368 12.0015 44.2368C17.9603 44.2368 22.805 39.392 22.805 33.4332V9.21786L43.6979 16.8136V33.5128Z" fill="#00D1FF" stroke="black" stroke-width="1.60714"/>
</svg>
