<svg width="151" height="60" viewBox="0 0 151 60" fill="none" xmlns="http://www.w3.org/2000/svg">
<path d="M52.5 25.6699C55.8333 27.5944 55.8333 32.4056 52.5 34.3301L22.5 51.6506C19.1667 53.5751 15 51.1695 15 47.3205L15 12.6795C15 8.83049 19.1667 6.42486 22.5 8.34936L52.5 25.6699Z" fill="#F5CF6C"/>
<path d="M97.5 25.6699C100.833 27.5944 100.833 32.4056 97.5 34.3301L67.5 51.6506C64.1667 53.5751 60 51.1695 60 47.3205L60 12.6795C60 8.83049 64.1667 6.42486 67.5 8.34936L97.5 25.6699Z" fill="#F5CF6C"/>
<path d="M143.5 25.6699C146.833 27.5944 146.833 32.4056 143.5 34.3301L113.5 51.6506C110.167 53.5751 106 51.1695 106 47.3205L106 12.6795C106 8.83049 110.167 6.42486 113.5 8.34936L143.5 25.6699Z" fill="#F5CF6C"/>
</svg>
