<svg width="151" height="60" viewBox="0 0 151 60" fill="none" xmlns="http://www.w3.org/2000/svg">
<path d="M98.5 34.3301C95.1667 32.4056 95.1667 27.5944 98.5 25.6699L128.5 8.34937C131.833 6.42487 136 8.8305 136 12.6795L136 47.3205C136 51.1695 131.833 53.5751 128.5 51.6506L98.5 34.3301Z" fill="#00D1FF"/>
<path d="M53.5 34.3301C50.1667 32.4056 50.1667 27.5944 53.5 25.6699L83.5 8.34937C86.8333 6.42487 91 8.8305 91 12.6795L91 47.3205C91 51.1695 86.8333 53.5751 83.5 51.6506L53.5 34.3301Z" fill="#00D1FF"/>
<path d="M7.5 34.3301C4.16667 32.4056 4.16667 27.5944 7.5 25.6699L37.5 8.34937C40.8333 6.42487 45 8.8305 45 12.6795L45 47.3205C45 51.1695 40.8333 53.5751 37.5 51.6506L7.5 34.3301Z" fill="#00D1FF"/>
</svg>
