<svg width="56" height="45" viewBox="0 0 56 45" fill="none" xmlns="http://www.w3.org/2000/svg">
<path d="M54.8576 22.5C49.6278 25.3522 45.7795 29.5873 44.0772 34.4893C44.0772 34.4894 44.0772 34.4894 44.0771 34.4895L40.9676 43.4294L37.8581 34.4895C37.858 34.4894 37.858 34.4894 37.858 34.4893C36.1557 29.5875 32.3197 25.352 27.0785 22.4995C32.3079 19.6471 36.1559 15.4122 37.8581 10.5104L40.9676 1.57055L44.0771 10.5104C44.0772 10.5105 44.0772 10.5106 44.0772 10.5107C45.7795 15.4127 49.6278 19.6477 54.8576 22.5Z" fill="#FFD23C" stroke="black"/>
<path d="M24.9795 22.5486C22.306 24.157 20.3332 26.4781 19.4401 29.1571L18 33.4699L16.5599 29.1571C15.6669 26.4783 13.7002 24.1568 11.0213 22.5481C13.6943 20.9398 15.6668 18.619 16.5598 15.9403C16.5598 15.9403 16.5598 15.9402 16.5599 15.9401L18 11.6272L19.4401 15.9401C20.3332 18.6191 22.306 20.9402 24.9795 22.5486Z" fill="#FFD23C" stroke="black"/>
<path d="M8.98083 22.5486C7.42552 23.5226 6.26785 24.879 5.72421 26.4445L5 28.5266L4.27579 26.4445C3.73221 24.8792 2.5779 23.5224 1.01988 22.5481C2.57475 21.5742 3.73212 20.2181 4.27571 18.6529C4.27573 18.6528 4.27576 18.6527 4.27579 18.6526L5 16.5706L5.72421 18.6526C5.72424 18.6527 5.72427 18.6528 5.72429 18.6529C6.26797 20.2183 7.4256 21.5746 8.98083 22.5486Z" fill="#FFD23C" stroke="black"/>
</svg>
