<svg width="479" height="506" viewBox="0 0 479 506" fill="none" xmlns="http://www.w3.org/2000/svg">
<g opacity="0.3">
<path d="M0 253V506H162.242H324.484V497.839V489.677H262.677H200.871V440.71V391.742H162.242H123.613V424.387V457.032H92.7097H61.8064V465.194V473.355H100.435H139.065V440.71V408.065H162.242H185.419V448.871V489.677H177.694H169.968V457.032V424.387H162.242H154.516V457.032V489.677H84.9839H15.4516V465.194V440.71H23.1774H30.9032V457.032V473.355H38.629H46.3548V457.032V440.71H77.2581H108.161V408.065V375.419H162.242H216.323V391.742V408.065H231.774H247.226V424.387V440.71H278.129H309.032V448.871V457.032H270.403H231.774V440.71V424.387H224.048H216.323V448.871V473.355H270.403H324.484V408.065V342.774H355.387H386.29V326.452V310.129H409.468H432.645V350.935V391.742H424.919H417.194V359.097V326.452H409.468H401.742V342.774V359.097H370.839H339.935V367.258V375.419H370.839H401.742V391.742V408.065H424.919H448.097V350.935V293.806H417.194H386.29V269.323V244.839H401.742H417.194V236.677V228.516H394.016H370.839V277.484V326.452H332.21H293.581V301.968V277.484H309.032H324.484V269.323V261.161H301.306H278.129V301.968V342.774H293.581H309.032V383.581V424.387H285.855H262.677V408.065V391.742H247.226H231.774V375.419V359.097H216.323H200.871V334.613V310.129H216.323H231.774V301.968V293.806H193.145H154.516V301.968V310.129H169.968H185.419V334.613V359.097H123.613H61.8064V367.258V375.419H77.2581H92.7097V399.903V424.387H54.0806H15.4516V350.935V277.484H46.3548H77.2581V244.839V212.194H84.9839H92.7097V253V293.806H61.8064H30.9032V350.935V408.065H54.0806H77.2581V399.903V391.742H61.8064H46.3548V367.258V342.774H108.161H169.968V334.613V326.452H154.516H139.065V301.968V277.484H193.145H247.226V301.968V326.452H231.774H216.323V334.613V342.774H231.774H247.226V359.097V375.419H262.677H278.129V391.742V408.065H285.855H293.581V383.581V359.097H278.129H262.677V301.968V244.839H301.306H339.935V269.323V293.806H324.484H309.032V301.968V310.129H332.21H355.387V261.161V212.194H394.016H432.645V236.677V261.161H417.194H401.742V269.323V277.484H424.919H448.097V236.677V195.871H432.645H417.194V114.258V32.6451H378.565H339.935V40.8064V48.9677H370.839H401.742V89.7742V130.581H378.565H355.387V114.258V97.9355H347.661H339.935V114.258V130.581H324.484H309.032V138.742V146.903H339.935H370.839V163.226V179.548H378.565H386.29V163.226V146.903H394.016H401.742V171.387V195.871H355.387H309.032V204.032V212.194H324.484H339.935V220.355V228.516H301.306H262.677V212.194V195.871H254.952H247.226V228.516V261.161H193.145H139.065V228.516V195.871H131.339H123.613V261.161V326.452H84.9839H46.3548V318.29V310.129H77.2581H108.161V253V195.871H92.7097H77.2581V122.419V48.9677H115.887H154.516V73.4516V97.9355H139.065H123.613V122.419V146.903H193.145H262.677V122.419V97.9355H224.048H185.419V106.097V114.258H216.323H247.226V122.419V130.581H193.145H139.065V122.419V114.258H154.516H169.968V81.6129V48.9677H200.871H231.774V40.8064V32.6451H146.79H61.8064V65.2903V97.9355H46.3548H30.9032V106.097V114.258H46.3548H61.8064V155.064V195.871H46.3548H30.9032V220.355V244.839H38.629H46.3548V228.516V212.194H54.0806H61.8064V236.677V261.161H38.629H15.4516V204.032V146.903H23.1774H30.9032V163.226V179.548H38.629H46.3548V155.064V130.581H30.9032H15.4516V73.4516V16.3225H23.1774H30.9032V48.9677V81.6129H38.629H46.3548V48.9677V16.3225H139.065H231.774V8.16125V-3.05176e-05H115.887H0V253Z" fill="#FAF8E0"/>
<path d="M247.227 8.16125V16.3225H278.13H309.034V57.129V97.9355H301.308H293.582V81.6129V65.2903H278.13H262.679V57.129V48.9677H278.13H293.582V40.8064V32.6451H270.404H247.227V48.9677V65.2903H216.324H185.421V73.4516V81.6129H231.775H278.13V122.419V163.226H247.227H216.324V195.871V228.516H193.146H169.969V204.032V179.548H177.695H185.421V195.871V212.194H193.146H200.872V187.71V163.226H154.517H108.163V122.419V81.6129H123.614H139.066V73.4516V65.2903H115.888H92.7109V122.419V179.548H123.614H154.517V212.194V244.839H193.146H231.775V212.194V179.548H254.953H278.13V195.871V212.194H285.856H293.582V195.871V179.548H324.485H355.388V171.387V163.226H324.485H293.582V138.742V114.258H309.034H324.485V97.9355V81.6129H347.663H370.84V97.9355V114.258H378.566H386.292V89.7742V65.2903H355.388H324.485V40.8064V16.3225H394.017H463.55V89.7742V163.226H455.824H448.098V97.9355V32.6451H440.372H432.646V106.097V179.548H448.098H463.55V301.968V424.387H424.921H386.292V408.065V391.742H363.114H339.937V432.548V473.355H347.663H355.388V440.71V408.065H363.114H370.84V424.387V440.71H401.743H432.646V457.032V473.355H440.372H448.098V457.032V440.71H455.824H463.55V465.194V489.677H424.921H386.292V481.516V473.355H401.743H417.195V465.194V457.032H394.017H370.84V473.355V489.677H355.388H339.937V497.839V506H409.469H479.001V253V-3.05176e-05H363.114H247.227V8.16125Z" fill="#FAF8E0"/>
</g>
</svg>
