<svg width="15" height="45" viewBox="0 0 15 45" fill="none" xmlns="http://www.w3.org/2000/svg">
<path d="M15.0041 20.082H0.296875L3.09971 24.2968H12.4611L15.0041 20.082Z" fill="white"/>
<path d="M10.9215 25.5771H4.47168L5.62526 34.9087L10.0445 31.4193L10.9215 25.5771Z" fill="white"/>
<path d="M9.98562 32.9248L5.61328 36.4469L6.40663 44.8254H8.79314L9.98562 32.9248Z" fill="#837165"/>
<path d="M11.7574 10.3405C12.4625 11.853 13.5551 15.1734 12.2861 16.3552C11.0623 17.4953 8.9526 18.2688 7.95091 18.543C10.9113 15.7347 9.81864 14.5074 8.90241 14.2448C6.87236 13.8227 6.85825 12.0992 7.10499 11.2902C5.66695 14.2448 6.92875 17.3753 7.73924 18.5713H7.31641L5.51894 17.9381L3.82715 11.6068L4.99027 7.06941L9.43108 4.95898L9.11408 9.91845L11.7574 10.3405Z" fill="#FFC5C5"/>
<path d="M14.6118 11.5018C14.5269 15.3005 11.2634 17.4463 9.64216 18.0443C13.0258 14.9207 12.3208 11.959 11.5452 10.8687C11.4607 12.0505 10.4526 12.1349 9.95916 12.0294C7.33719 11.2697 8.37316 7.28098 9.21883 5.3816C1.3523 10.1934 4.74288 16.1799 7.42165 18.5719C5.81433 18.7404 4.14381 18.0795 3.50946 17.7274C0.887185 16.1236 1.2184 14.1047 1.71179 13.2956C1.64128 13.7529 1.69062 14.6041 2.45192 14.3509C3.21323 14.0976 2.91019 13.5419 2.66349 13.2956C0.125834 10.5943 3.4389 7.24577 5.41262 5.90919C8.11926 3.62993 7.0339 1.02003 6.1528 0C11.5665 0.253235 11.4398 4.32636 10.6995 6.33126C9.76886 8.18845 10.7348 9.00448 11.334 9.18031C12.9409 8.75824 12.6378 6.96437 12.2855 6.12022C14.4002 7.13321 14.7172 10.13 14.6118 11.5018Z" fill="#FF676B"/>
<path d="M4.77784 3.37677C3.50903 4.05208 3.47376 5.13543 3.61477 5.59271C2.34592 4.41088 3.43853 3.48229 4.14344 3.16574C4.98935 2.74361 5.05981 2.1105 4.88357 1.79395C5.89867 2.38486 5.23605 3.09537 4.77784 3.37677Z" fill="#FF676B"/>
</svg>
