<svg width="360" height="19" viewBox="0 0 360 19" fill="none" xmlns="http://www.w3.org/2000/svg">
<g clip-path="url(#clip0_819_5525)">
<path d="M20 0L0 20L20 40L40 20L20 0ZM20 27.2086C16.0235 27.2086 12.7914 23.9863 12.7914 20C12.7914 16.0235 16.0137 12.7914 20 12.7914C23.9863 12.7914 27.2086 16.0137 27.2086 20C27.2086 23.9765 23.9765 27.2086 20 27.2086Z" fill="white"/>
<path d="M60 0L40 20L60 40L80 20L60 0ZM60 27.2086C56.0235 27.2086 52.7914 23.9863 52.7914 20C52.7914 16.0235 56.0137 12.7914 60 12.7914C63.9863 12.7914 67.2086 16.0137 67.2086 20C67.2086 23.9765 63.9765 27.2086 60 27.2086Z" fill="white"/>
<path d="M100 0L80 20L100 40L120 20L100 0ZM100 27.2086C96.0235 27.2086 92.7914 23.9863 92.7914 20C92.7914 16.0235 96.0137 12.7914 100 12.7914C103.986 12.7914 107.209 16.0137 107.209 20C107.209 23.9765 103.976 27.2086 100 27.2086Z" fill="white"/>
<path d="M140 0L120 20L140 40L160 20L140 0ZM140 27.2086C136.024 27.2086 132.791 23.9863 132.791 20C132.791 16.0235 136.014 12.7914 140 12.7914C143.986 12.7914 147.209 16.0137 147.209 20C147.209 23.9765 143.976 27.2086 140 27.2086Z" fill="white"/>
<path d="M180 0L160 20L180 40L200 20L180 0ZM180 27.2086C176.024 27.2086 172.791 23.9863 172.791 20C172.791 16.0235 176.014 12.7914 180 12.7914C183.986 12.7914 187.209 16.0137 187.209 20C187.209 23.9765 183.976 27.2086 180 27.2086Z" fill="white"/>
<path d="M220 0L200 20L220 40L240 20L220 0ZM220 27.2086C216.024 27.2086 212.791 23.9863 212.791 20C212.791 16.0235 216.014 12.7914 220 12.7914C223.986 12.7914 227.209 16.0137 227.209 20C227.209 23.9765 223.976 27.2086 220 27.2086Z" fill="white"/>
<path d="M260 0L240 20L260 40L280 20L260 0ZM260 27.2086C256.024 27.2086 252.791 23.9863 252.791 20C252.791 16.0235 256.014 12.7914 260 12.7914C263.986 12.7914 267.209 16.0137 267.209 20C267.209 23.9765 263.976 27.2086 260 27.2086Z" fill="white"/>
<path d="M300 0L280 20L300 40L320 20L300 0ZM300 27.2086C296.024 27.2086 292.791 23.9863 292.791 20C292.791 16.0235 296.014 12.7914 300 12.7914C303.986 12.7914 307.209 16.0137 307.209 20C307.209 23.9765 303.976 27.2086 300 27.2086Z" fill="white"/>
<path d="M340 0L320 20L340 40L360 20L340 0ZM340 27.2086C336.024 27.2086 332.791 23.9863 332.791 20C332.791 16.0235 336.014 12.7914 340 12.7914C343.986 12.7914 347.209 16.0137 347.209 20C347.209 23.9765 343.976 27.2086 340 27.2086Z" fill="white"/>
</g>
<defs>
<clipPath id="clip0_819_5525">
<rect width="360" height="48" fill="white"/>
</clipPath>
</defs>
</svg>
