<svg width="228" height="120" viewBox="0 0 228 120" fill="none" xmlns="http://www.w3.org/2000/svg">
<g filter="url(#filter0_d_372_15039)">
<path fill-rule="evenodd" clip-rule="evenodd" d="M38.9975 109.511C38.5352 110.855 38.5341 110.855 38.5341 110.855L38.527 110.853L38.5091 110.847L38.4447 110.828C38.3893 110.811 38.3093 110.787 38.2062 110.755C37.9999 110.69 37.7011 110.594 37.3223 110.466C36.5649 110.21 35.4862 109.827 34.1866 109.311C31.5909 108.28 28.096 106.715 24.5121 104.577C17.4119 100.34 9.62915 93.6497 8.27636 84.1376C7.66821 79.8613 8.58687 75.5048 10.7311 72.0391C12.8812 68.5638 16.3141 65.9218 20.7065 65.2971C25.8792 64.5615 30.201 66.7322 33.4077 70.2064C35.5185 65.9761 39.0638 62.6864 44.2366 61.9507C48.6295 61.326 52.6629 62.9066 55.6965 65.6447C58.7218 68.3755 60.8185 72.3032 61.4265 76.5788C62.7282 85.7319 57.107 94.3295 51.5024 100.449C48.668 103.544 45.7624 106.088 43.5684 107.857C42.4701 108.743 41.5465 109.437 40.8947 109.912C40.5686 110.15 40.3102 110.332 40.1315 110.457C40.0423 110.519 39.9729 110.567 39.9249 110.6L39.8692 110.638L39.8537 110.648L39.8492 110.651L39.8477 110.652C39.8477 110.652 39.8467 110.653 38.9975 109.511ZM38.9975 109.511L39.8477 110.652L39.2388 111.061L38.5341 110.855L38.9975 109.511Z" fill="#EA33ED"/>
<path fill-rule="evenodd" clip-rule="evenodd" d="M119.956 104.015C119.494 105.359 119.493 105.359 119.493 105.359L119.486 105.357L119.468 105.351L119.404 105.332C119.348 105.315 119.268 105.291 119.165 105.258C118.959 105.194 118.66 105.098 118.281 104.97C117.524 104.714 116.445 104.331 115.146 103.815C112.55 102.784 109.055 101.219 105.471 99.0805C98.3709 94.8436 90.5881 88.1536 89.2353 78.6415C88.6272 74.3652 89.5459 70.0087 91.6901 66.543C93.8402 63.0677 97.273 60.4257 101.665 59.801C106.838 59.0654 111.16 61.2361 114.367 64.7103C116.478 60.48 120.023 57.1903 125.196 56.4546C129.588 55.8299 133.622 57.4105 136.655 60.1486C139.681 62.8794 141.777 66.8071 142.386 71.0827C143.687 80.2358 138.066 88.8334 132.461 94.9534C129.627 98.0484 126.721 100.592 124.527 102.361C123.429 103.247 122.506 103.941 121.854 104.416C121.528 104.654 121.269 104.836 121.091 104.961C121.001 105.023 120.932 105.071 120.884 105.104L120.828 105.142L120.813 105.152L120.808 105.155L120.807 105.156C120.807 105.156 120.806 105.157 119.956 104.015ZM119.956 104.015L120.807 105.156L120.198 105.565L119.493 105.359L119.956 104.015Z" fill="#00E9F4"/>
<path fill-rule="evenodd" clip-rule="evenodd" d="M200.917 98.518C200.455 99.862 200.454 99.8617 200.454 99.8617L200.447 99.8596L200.429 99.8542L200.365 99.835C200.309 99.8182 200.229 99.7937 200.126 99.7614C199.92 99.6967 199.621 99.6007 199.242 99.4728C198.485 99.2171 197.406 98.8335 196.107 98.3177C193.511 97.2872 190.016 95.722 186.432 93.5835C179.332 89.3465 171.549 82.6566 170.196 73.1444C169.588 68.8681 170.507 64.5116 172.651 61.0459C174.801 57.5706 178.234 54.9286 182.626 54.3039C187.799 53.5683 192.121 55.739 195.328 59.2132C197.438 54.9829 200.984 51.6932 206.157 50.9576C210.549 50.3328 214.583 51.9134 217.616 54.6516C220.642 57.3823 222.738 61.31 223.346 65.5856C224.648 74.7387 219.027 83.3363 213.422 89.4563C210.588 92.5513 207.682 95.0953 205.488 96.8643C204.39 97.75 203.466 98.4442 202.815 98.919C202.489 99.1564 202.23 99.3393 202.051 99.4639C201.962 99.5262 201.893 99.574 201.845 99.6068L201.789 99.6446L201.774 99.655L201.769 99.6582L201.768 99.6592C201.768 99.6592 201.767 99.6599 200.917 98.518ZM200.917 98.518L201.768 99.6592L201.159 100.068L200.454 99.8617L200.917 98.518Z" fill="#FFD23C"/>
</g>
<defs>
<filter id="filter0_d_372_15039" x="-6.79796" y="-24.3145" width="234.776" height="147.703" filterUnits="userSpaceOnUse" color-interpolation-filters="sRGB">
<feFlood flood-opacity="0" result="BackgroundImageFix"/>
<feColorMatrix in="SourceAlpha" type="matrix" values="0 0 0 0 0 0 0 0 0 0 0 0 0 0 0 0 0 0 127 0" result="hardAlpha"/>
<feOffset dx="-7.47569" dy="8.30633"/>
<feComposite in2="hardAlpha" operator="out"/>
<feColorMatrix type="matrix" values="0 0 0 0 0 0 0 0 0 0 0 0 0 0 0 0 0 0 1 0"/>
<feBlend mode="normal" in2="BackgroundImageFix" result="effect1_dropShadow_372_15039"/>
<feBlend mode="normal" in="SourceGraphic" in2="effect1_dropShadow_372_15039" result="shape"/>
</filter>
</defs>
</svg>
