<svg width="682" height="863" viewBox="0 0 682 863" fill="none" xmlns="http://www.w3.org/2000/svg">
<path d="M617.277 199.041L564.856 188.244C542.867 183.715 521.371 197.869 516.842 219.857L506.044 272.278C501.515 294.267 515.669 315.763 537.658 320.292L590.079 331.09C612.067 335.619 633.564 321.465 638.093 299.476L648.89 247.055C653.419 225.067 639.265 203.57 617.277 199.041Z" fill="#A7DDFF"/>
<path d="M722.202 357.815L669.781 347.018C647.793 342.489 626.296 356.642 621.767 378.631L610.97 431.052C606.441 453.04 620.595 474.537 642.583 479.066L695.005 489.863C716.993 494.392 738.49 480.238 743.019 458.25L753.816 405.829C758.345 383.84 744.191 362.344 722.202 357.815Z" fill="#A7DDFF"/>
<path d="M458.503 303.963L406.082 293.166C384.094 288.637 362.597 302.791 358.068 324.779L347.271 377.2C342.742 399.189 356.896 420.685 378.884 425.214L431.305 436.011C453.294 440.54 474.79 426.387 479.319 404.398L490.116 351.977C494.645 329.989 480.492 308.492 458.503 303.963Z" fill="#A7DDFF"/>
<path d="M563.425 462.737L511.004 451.939C489.016 447.41 467.519 461.564 462.99 483.553L452.193 535.974C447.664 557.962 461.818 579.459 483.806 583.988L536.227 594.785C558.216 599.314 579.712 585.16 584.241 563.172L595.038 510.751C599.567 488.762 585.414 467.266 563.425 462.737Z" fill="#A7DDFF"/>
<path d="M668.351 621.514L615.93 610.717C593.941 606.188 572.445 620.342 567.916 642.33L557.119 694.751C552.59 716.74 566.743 738.236 588.732 742.765L641.153 753.562C663.141 758.091 684.638 743.937 689.167 721.949L699.964 669.528C704.493 647.539 690.339 626.043 668.351 621.514Z" fill="#A7DDFF"/>
<path d="M297.702 407.6L245.281 396.803C223.293 392.274 201.796 406.427 197.267 428.416L186.47 480.837C181.941 502.825 196.095 524.322 218.083 528.851L270.505 539.648C292.493 544.177 313.99 530.023 318.519 508.035L329.316 455.614C333.845 433.625 319.691 412.129 297.702 407.6Z" fill="#A7DDFF"/>
<path d="M402.995 568.03L350.574 557.232C328.586 552.703 307.089 566.857 302.56 588.846L291.763 641.267C287.234 663.255 301.388 684.752 323.376 689.281L375.798 700.078C397.786 704.607 419.283 690.453 423.812 668.465L434.609 616.044C439.138 594.055 424.984 572.558 402.995 568.03Z" fill="#A7DDFF"/>
<path d="M507.921 726.803L455.5 716.006C433.512 711.477 412.015 725.631 407.486 747.619L396.689 800.04C392.16 822.029 406.314 843.525 428.302 848.054L480.723 858.851C502.712 863.38 524.208 849.227 528.737 827.238L539.534 774.817C544.063 752.829 529.91 731.332 507.921 726.803Z" fill="#A7DDFF"/>
</svg>
