<svg width="269" height="353" viewBox="0 0 269 353" fill="none" xmlns="http://www.w3.org/2000/svg">
<path d="M-2.5729e-06 294.139L109.463 353L109.463 294.139L109.463 235.361L-2.5729e-06 294.139Z" fill="white"/>
<path d="M109.463 117.639L-2.5729e-06 176.5L109.463 235.361L109.463 176.5L109.463 117.639Z" fill="white"/>
<path d="M109.463 1.0474e-05L-2.56926e-06 58.8611L109.463 117.639L109.463 58.8611L109.463 1.0474e-05Z" fill="white"/>
<path d="M109.463 294.139L194.79 353L194.79 294.139L194.79 235.361L109.463 294.139Z" fill="white"/>
<path d="M109.463 176.5L194.79 235.361L194.79 176.5L194.79 117.639L109.463 176.5Z" fill="white"/>
<path d="M194.79 58.8611L194.79 1.1529e-05L109.463 58.8611L194.79 117.639L194.79 58.8611Z" fill="white"/>
<path d="M247.468 235.361L194.79 294.139L247.468 353L247.468 297.969L269 353L269 235.361L247.468 290.309L247.468 235.361Z" fill="white"/>
<path d="M247.468 117.639L194.79 176.5L247.468 235.361L247.468 180.33L269 235.361L269 117.639L247.468 172.67L247.468 117.639Z" fill="white"/>
<path d="M247.468 1.29561e-05L194.79 58.8611L247.468 117.639L247.468 62.6908L269 117.639L269 1.2015e-05L247.468 55.0314L247.468 1.29561e-05Z" fill="white"/>
</svg>
