<svg width="392" height="361" viewBox="0 0 392 361" fill="none" xmlns="http://www.w3.org/2000/svg">
<path d="M-114.406 262.763L-86.8499 338.932C-81.2134 354.512 -64.0138 362.573 -48.4334 356.936L172.55 276.991C188.13 271.355 196.192 254.155 190.555 238.575L163.752 164.487C158.154 149.013 166.067 131.917 181.487 126.17L369.913 55.951C385.334 50.2045 393.246 33.1085 387.648 17.6338L362.206 -52.6921C356.57 -68.2724 339.37 -76.3335 323.79 -70.697L100.925 9.92865C85.3451 15.5651 77.2841 32.7648 82.9206 48.3451L108.265 118.402C113.901 133.982 105.84 151.182 90.26 156.818L-96.4006 224.346C-111.981 229.983 -120.042 247.182 -114.406 262.763Z" fill="#0D25FA" stroke="black" stroke-width="4"/>
</svg>
