<svg width="353" height="231" viewBox="0 0 353 231" fill="none" xmlns="http://www.w3.org/2000/svg">
<path d="M58.8611 92.6784H2.7208L58.8602 3.7489L114.92 92.6784H58.8611Z" fill="#E1067B" stroke="black" stroke-width="3"/>
<path d="M120.36 92.6784L176.501 3.74748L232.641 92.6784H176.501H120.36Z" fill="#E1067B" stroke="black" stroke-width="3"/>
<path d="M238.08 92.6784L294.14 3.7489L350.279 92.6784H294.139H238.08Z" fill="#E1067B" stroke="black" stroke-width="3"/>
<path d="M58.8611 165.36H3.14497L58.8603 96.5628L114.497 165.36H58.8611Z" fill="#E1067B" stroke="black" stroke-width="3"/>
<path d="M176.501 165.36H120.785L176.501 96.5618L232.217 165.36H176.501Z" fill="#E1067B" stroke="black" stroke-width="3"/>
<path d="M238.503 165.36L294.14 96.5628L349.855 165.36H294.139H238.503Z" fill="#E1067B" stroke="black" stroke-width="3"/>
<path d="M62.2159 213.155L108.407 228.573H9.24473L55.5056 213.155L55.0314 210.232H4.44184L58.8604 168.747L113.202 210.232H62.6908L62.2159 213.155Z" fill="#E1067B" stroke="black" stroke-width="3"/>
<path d="M179.856 213.155L226.117 228.573H126.884L173.145 213.155L172.671 210.232H122.081L176.501 168.746L230.92 210.232H180.33L179.856 213.155Z" fill="#E1067B" stroke="black" stroke-width="3"/>
<path d="M297.495 213.155L343.756 228.573H244.593L290.784 213.155L290.309 210.232H239.798L294.14 168.747L348.558 210.232H297.969L297.495 213.155Z" fill="#E1067B" stroke="black" stroke-width="3"/>
</svg>
